<svg xmlns="http://www.w3.org/2000/svg" width="1920" height="1080" xmlns:xlink="http://www.w3.org/1999/xlink" shape-rendering="geometricPrecision" text-rendering="geometricPrecision" image-rendering="optimizeQuality" fill-rule="evenodd" clip-rule="evenodd"><defs><style>.prefix__fil17{fill:#0173b1}.prefix__fil31{fill:#070705}.prefix__fil7{fill:#3ba0f3}.prefix__fil32{fill:#443c2f}.prefix__fil19{fill:#47a9b4}.prefix__fil13{fill:#9bc1d8}.prefix__fil5{fill:#aca69a}.prefix__fil3{fill:#d6d0c4}.prefix__fil8{fill:#eff2fa}.prefix__fil30{fill:#f5bc91}.prefix__fil20{fill:#feffff}.prefix__fil15{fill:#fff}</style><linearGradient id="prefix__id0" gradientUnits="userSpaceOnUse" x1="448.22" y1="279.69" x2="568.94" y2="279.69"><stop offset="0" stop-color="#8e8a7f"/><stop offset="1" stop-color="#aca69a"/></linearGradient><linearGradient id="prefix__id1" gradientUnits="userSpaceOnUse" x1="448.22" y1="245.61" x2="568.94" y2="245.61"><stop offset="0" stop-color="#aba49a"/><stop offset="1" stop-color="#bfb9ab"/></linearGradient><linearGradient id="prefix__id2" gradientUnits="userSpaceOnUse" x1="305.28" y1="257.9" x2="448.22" y2="257.9"><stop offset="0" stop-color="#42959d"/><stop offset="1" stop-color="#47a9b2"/></linearGradient><linearGradient id="prefix__id3" gradientUnits="userSpaceOnUse" x1="959.97" y1="913.87" x2="960.04" y2="1080.06"><stop offset="0" stop-color="#b9b5aa"/><stop offset="1" stop-color="#d9d3c7"/></linearGradient><linearGradient id="prefix__id4" gradientUnits="userSpaceOnUse" x1="204.93" y1="301.22" x2="234.43" y2="326.02"><stop offset="0" stop-color="#dba782"/><stop offset="1" stop-color="#f6bd92"/></linearGradient><linearGradient id="prefix__id5" gradientUnits="userSpaceOnUse" x1="1455.14" y1="725.97" x2="1592.96" y2="1003.72"><stop offset="0" stop-color="#dcdcde"/><stop offset="1" stop-color="#fefefe"/></linearGradient><linearGradient id="prefix__id6" gradientUnits="userSpaceOnUse" xlink:href="#prefix__id5" x1="454.51" y1="62.73" x2="658.42" y2="473.66"/><linearGradient id="prefix__id7" gradientUnits="userSpaceOnUse" x1="172.62" y1="401.03" x2="177.81" y2="514"><stop offset="0" stop-color="#746e62"/><stop offset="1" stop-color="#837b6e"/></linearGradient><linearGradient id="prefix__id8" gradientUnits="userSpaceOnUse" x1="225.06" y1="614.75" x2="237.37" y2="778.82"><stop offset="0" stop-color="#3b3328"/><stop offset="1" stop-color="#443c2f"/></linearGradient></defs><g id="prefix__Layer"><g id="prefix__Image"><g id="prefix__Background"><path id="prefix__BackgroundGround" fill="url(#prefix__id3)" d="M0 913.87h1920v166.19H0z"/><path id="prefix__BackgroundSky" fill="#ebe5d9" d="M0 .06h1920v913.81H0z"/><g id="prefix__BackgroundGraphics"><path id="prefix__BackgroundGraphic3" d="M900.84 902.82c-122.79 0-233.97-49.78-314.45-130.26-80.48-80.48-130.26-191.66-130.26-314.45 0-122.79 49.78-233.97 130.26-314.45C666.87 63.18 778.05 13.4 900.84 13.4c122.79 0 233.97 49.78 314.45 130.26 80.48 80.48 130.26 191.66 130.26 314.45 0 122.79-49.78 233.97-130.26 314.45-80.48 80.48-191.66 130.26-314.45 130.26zm0-83.34c-199.58 0-361.37-161.79-361.37-361.37S701.26 96.74 900.84 96.74s361.37 161.79 361.37 361.37-161.79 361.37-361.37 361.37z" fill="#f6f0e4"/><path id="prefix__BackgroundGraphic2" class="prefix__fil3" d="M900.84 819.48c-199.58 0-361.37-161.79-361.37-361.37S701.26 96.74 900.84 96.74s361.37 161.79 361.37 361.37-161.79 361.37-361.37 361.37z"/><path id="prefix__BackgroudGraphic1" class="prefix__fil3" d="M0 817.76h32.28v-175h56.25v226.56h28.12v-89.06h36.72v109.38h237.5V702.92h75v184.37h36.72v-67.18h75.78v67.18h114.85v26.58H0z"/></g></g><g id="prefix__ServerTower"><g id="prefix__ServerTowerRight"><path id="prefix__ServerTowerRightBase" d="M953.98 60.15c34.61 11.65 67.63 22.75 99.14 33.34 30.07 10.11 58.85 19.79 86.45 29.06v845.19c-27.56 9.26-56.36 18.95-86.45 29.07-31.51 10.59-64.55 21.7-99.14 33.34V545.34 60.15z" fill="#979185"/><path id="prefix__ServerTowerRightDesign" class="prefix__fil5" d="M974.13 342.29c27.32 3.9 53.66 7.65 78.99 11.26 24.41 3.48 47.96 6.84 70.7 10.09v52.88c-22.74-2.3-46.29-4.68-70.7-7.14-25.33-2.56-51.67-5.22-78.99-7.98v-59.11zm127.17-67.12V198.7c-15.68-4.2-31.73-8.49-48.18-12.89-16.87-4.51-34.18-9.14-51.93-13.89v82.38c17.75 3.7 35.06 7.3 51.93 10.82 16.45 3.43 32.5 6.77 48.18 10.05zm22.52 30.53c-22.74-4.28-46.29-8.71-70.7-13.3-25.33-4.76-51.67-9.72-78.99-14.86V135.8c27.32 7.86 53.66 15.44 78.99 22.73 24.39 7.02 47.94 13.8 70.7 20.34V305.7zm-149.7 649.1v-59.11l79-19.48c24.41-6.01 47.98-11.82 70.7-17.43v52.89c-22.72 6.55-46.29 13.34-70.7 20.37-25.35 7.3-51.67 14.89-79 22.76zm.01-537.33c27.32 2.45 53.66 4.81 78.99 7.08 24.41 2.19 47.96 4.31 70.7 6.35v52.89c-22.74-1.1-46.29-2.24-70.7-3.41-25.33-1.22-51.67-2.49-78.99-3.8v-59.11zm0 79.67c27.32.92 53.66 1.81 78.99 2.66 24.41.82 47.96 1.62 70.7 2.39v52.97c-22.74.17-46.29.36-70.7.56-25.33.2-51.67.41-79 .62.01-19.7.01-39.4.01-59.2zm-.01 79.67c27.33-.61 53.67-1.2 79-1.76 24.41-.55 47.96-1.08 70.7-1.58v52.97c-22.74 1.45-46.29 2.96-70.7 4.52-25.33 1.62-51.67 3.31-79 5.06v-59.21zm0 79.77c27.33-2.14 53.67-4.21 79-6.2 24.41-1.91 47.96-3.76 70.7-5.54v52.89c-22.74 2.72-46.29 5.55-70.7 8.48-25.35 3.04-51.67 6.2-79 9.48v-59.11zm0 79.67c27.33-3.67 53.65-7.21 79-10.62 24.41-3.28 47.96-6.45 70.7-9.5v52.88c-22.72 4-46.29 8.15-70.7 12.44-25.35 4.47-51.67 9.1-79 13.91v-59.11zm0 138.88v-59.21c27.33-5.2 53.65-10.22 79-15.04a885457 885457 0 0 0 70.7-13.47v52.97c-22.72 5.28-46.29 10.75-70.7 16.41-25.35 5.88-51.67 11.99-79 18.34z"/></g><g id="prefix__ServerTowerLeft"><path id="prefix__ServerTowerLeftBase" class="prefix__fil5" d="M953.98 60.15c-58.82 15.42-113.97 29.9-165.77 43.49-48.78 12.81-94.86 24.89-138.39 36.33V950.33c43.47 11.42 89.58 23.51 138.39 36.32 51.83 13.6 107.01 28.09 165.77 43.5V545.34 60.15z"/><path id="prefix__ServerTowerLeftDesign" d="M862.12 349.64c19.5-2.17 39.42-4.39 59.83-6.66v58.91c-20.38 1.61-40.33 3.18-59.83 4.72v-56.97zm59.83-71.2c-46.87 6.89-91.43 13.43-133.74 19.64-40.27 5.91-78.71 11.56-115.36 16.94V193.13c36.65-8.23 75.09-16.87 115.36-25.91 42.31-9.5 86.87-19.51 133.74-30.04v141.26zm-226.29 8.03c29.68-4.83 60.56-9.85 92.55-15.06 33.28-5.41 67.95-11.05 104.06-16.92-.03-27.38-.03-54.85-.03-82.32-36.11 7.53-70.75 14.77-104.03 21.72-31.99 6.68-62.87 13.12-92.55 19.32v73.26zm-22.84 560.1c16.54 3.18 33.45 6.44 50.73 9.76 17.67 3.4 35.74 6.88 54.2 10.43v54.23c-18.46-4.15-36.53-8.21-54.2-12.18-17.28-3.89-34.19-7.69-50.76-11.41.03-16.94.03-33.89.03-50.83zm.03-411.22c36.62-2.57 75.09-5.27 115.36-8.08 42.31-2.97 86.87-6.08 133.74-9.37v58.91c-46.87 1.76-91.43 3.44-133.74 5.02-40.27 1.52-78.74 2.96-115.39 4.34.03-16.94.03-33.88.03-50.82zm48.48 67.23c30.29-.8 61.74-1.63 94.41-2.48 33.97-.89 69.38-1.83 106.21-2.8.03 19.74.03 39.37.03 59.01-36.86-.23-72.27-.45-106.24-.66-32.67-.2-64.12-.4-94.41-.59v-52.48zm-27.1 70.16c33.91.59 69.29 1.2 106.24 1.85 38.63.67 79.11 1.38 121.51 2.12v59c-42.4-2.12-82.88-4.14-121.51-6.07-36.95-1.84-72.33-3.61-106.24-5.3v-51.6zm-21.41 68.22c23.2 1.41 47.14 2.88 71.75 4.39 25.39 1.55 51.61 3.16 78.65 4.81v55.71c-27.04-2.54-53.29-4.99-78.65-7.37-24.61-2.3-48.55-4.55-71.75-6.71v-50.83zm57.7 74.56c29.04 3.05 59.16 6.21 90.39 9.48 32.39 3.4 66.06 6.94 101.07 10.61v58.91c-35.01-4.81-68.68-9.44-101.07-13.88-31.23-4.29-61.35-8.43-90.39-12.42v-52.7zm-57.7 62.46l47.45 7.05v52.45c-16.15-2.92-31.97-5.79-47.45-8.59v-50.91zm148.12 97.09c16.03 3.09 32.39 6.24 49.06 9.44l51.98 10v58.91c-17.67-3.98-34.98-7.87-51.98-11.69-16.67-3.74-33.03-7.42-49.06-11.03v-55.63zm-90.42-88.52c29.04 4.32 59.16 8.8 90.39 13.44 32.39 4.81 66.06 9.82 101.07 15.02v59.01c-34.98-6.34-68.68-12.44-101.07-18.31-31.23-5.66-61.35-11.11-90.39-16.38v-52.78z" fill="#c1bbaf"/></g></g><g id="prefix__Folder"><path id="prefix__FolderHolder" class="prefix__fil7" d="M1639.84 164.3h-57.87c-3.02 0-5.78-1.7-7.13-4.4l-5.76-11.53 5.76-11.53a7.975 7.975 0 0 1 7.13-4.41h57.87c3.02 0 5.78 1.71 7.13 4.41l5.76 11.53-5.77 11.53a7.94 7.94 0 0 1-7.12 4.4z"/><path id="prefix__FolderFile2" class="prefix__fil8" d="M1776.21 140.4h-207.13a3.98 3.98 0 0 0-3.98 3.99v19.91h215.1v-19.92c0-2.2-1.79-3.98-3.99-3.98z"/><path id="prefix__FolderFile1" fill="#e1e6f2" d="M1565.1 156.33h215.1v7.97h-215.1z"/><path id="prefix__FolderBase" d="M1780.2 148.37h-125.01c-1.51 0-2.89.85-3.56 2.2l-4.66 9.33a7.966 7.966 0 0 1-7.13 4.4h-57.87c-3.02 0-5.78-1.7-7.13-4.4l-4.66-9.33a3.97 3.97 0 0 0-3.56-2.2h-1.52c-4.4 0-7.97 3.56-7.97 7.96V307.7c0 4.4 3.57 7.97 7.97 7.97h215.1c4.39 0 7.96-3.57 7.96-7.97V156.33c0-4.4-3.57-7.96-7.96-7.96z" fill="#92ceff"/><path id="prefix__FolderDesign" class="prefix__fil7" d="M1776.21 307.7h-207.13c-2.2 0-3.98-1.78-3.98-3.98s1.78-3.99 3.98-3.99h207.13c2.2 0 3.99 1.79 3.99 3.99s-1.79 3.98-3.99 3.98z"/><path id="prefix__FolderNameTag" class="prefix__fil8" d="M1704.51 208.12h59.75c2.2 0 3.99-1.79 3.99-3.99v-31.86c0-2.2-1.79-3.99-3.99-3.99h-59.75c-2.2 0-3.98 1.79-3.98 3.99v31.86c0 2.2 1.78 3.99 3.98 3.99z"/><path id="prefix__FolderNameLine2" d="M1756.3 200.15h-43.82c-2.2 0-3.98-1.78-3.98-3.98s1.78-3.99 3.98-3.99h43.82a3.984 3.984 0 1 1 0 7.97z" fill="#d7deed"/><path id="prefix__FolderNameLine1" d="M1756.3 184.22h-43.82c-2.2 0-3.98-1.79-3.98-3.99s1.78-3.98 3.98-3.98h43.82c2.19 0 3.98 1.78 3.98 3.98s-1.79 3.99-3.98 3.99z" fill="#c7cfe2"/></g><g id="prefix__Form"><path id="prefix__FormWindow" class="prefix__fil13" d="M1644.67 287.5c-53.5 5.41-104.48 10.58-153.03 15.49-46.4 4.7-90.8 9.19-133.22 13.48v195.51h286.25v-112.2V287.5z"/><path id="prefix__FormTitleBar" d="M1644.67 250.44c-53.5 6.31-104.48 12.32-153.03 18.05-46.4 5.47-90.77 10.7-133.22 15.7v32.28c42.42-4.29 86.82-8.78 133.22-13.48 48.55-4.91 99.53-10.08 153.03-15.49v-37.06z" fill="#358dbf"/><path id="prefix__FormUserIconBase" class="prefix__fil15" d="M1491.67 318.5c26.68-2.5 49.46 18.13 49.46 46.2 0 28.1-22.47 51.89-49.46 53.12-26.39 1.2-47.26-19.57-47.26-46.38 0-26.79 20.58-50.44 47.26-52.94z"/><path id="prefix__FormUserIcon" d="M1491.67 333.38c-10.42.9-18.75 5.86-18.75 21.11 0 10.11 3.66 22.3 9.13 29.16.06.17-.26 4.55-2.46 6.04-4.9 3.3-15.69 5.57-24.73 11.99 8.7 10.39 21.84 16.73 36.81 16.14 15.14-.79 28.85-8.55 38.1-20.21-9.65-5.57-20.92-6.61-25.94-9.37-2.25-1.24-2.6-5.62-2.54-5.79 5.64-7.66 9.41-20.57 9.41-30.87 0-15.53-8.58-19.11-19.03-18.2z" fill="#827c6e"/><path id="prefix__FormPasswordField" class="prefix__fil15" d="M1405.77 440.1c27.82-1 56.42-2.04 85.87-3.11 30.28-1.1 61.49-2.24 93.63-3.4 8.19-.3 14.97 6.07 14.97 14.16v8.67c0 8.07-6.78 14.81-14.97 14.97-32.14.6-63.35 1.19-93.63 1.76-29.45.55-58.05 1.09-85.87 1.61-6.85.13-12.4-5.75-12.4-13.05v-7.84c0-7.33 5.58-13.52 12.4-13.77z"/><path id="prefix__FormPassword" class="prefix__fil5" d="M1506.21 454.14c.43-1.36.86-2.75 1.29-4.14 3 1 5.18 1.87 6.55 2.61-.34-3.48-.54-5.89-.54-7.19 1.37-.04 2.75-.09 4.12-.13-.06 1.92-.28 4.32-.66 7.22 1.98-1.07 4.24-2.05 6.82-2.99.42 1.37.85 2.74 1.31 4.09-2.43.89-4.86 1.5-7.15 1.83 1.14 1 2.8 2.79 4.92 5.38-1.15.87-2.29 1.73-3.44 2.57-1.11-1.52-2.43-3.56-3.95-6.16-1.4 2.77-2.66 4.87-3.69 6.34-1.14-.78-2.29-1.59-3.38-2.4 2.21-2.81 3.78-4.67 4.76-5.6-2.47-.4-4.78-.88-6.96-1.43zm-103.68 2.88c.4-1.29.8-2.61 1.17-3.92 2.72.94 4.7 1.77 5.96 2.48-.35-3.31-.49-5.59-.52-6.83l3.72-.12c-.05 1.83-.23 4.11-.57 6.86 1.75-1.02 3.81-1.94 6.1-2.83.4 1.3.8 2.61 1.2 3.89-2.2.83-4.35 1.41-6.47 1.72 1.06.96 2.55 2.65 4.47 5.12-1.06.82-2.09 1.64-3.12 2.44-1.01-1.45-2.18-3.39-3.52-5.86-1.29 2.63-2.41 4.62-3.35 6.02-1.03-.75-2.06-1.52-3.07-2.29 2.01-2.66 3.41-4.42 4.3-5.31-2.21-.39-4.3-.84-6.3-1.37zm24.93-.69c.4-1.31.8-2.65 1.2-3.98 2.81.96 4.81 1.8 6.07 2.52-.31-3.35-.48-5.67-.51-6.92l3.83-.12c-.05 1.85-.23 4.15-.63 6.94 1.84-1.03 3.93-1.97 6.3-2.87.4 1.32.83 2.64 1.23 3.94-2.26.85-4.46 1.43-6.64 1.75 1.09.97 2.61 2.69 4.58 5.18-1.06.83-2.12 1.67-3.2 2.48-1.01-1.48-2.24-3.44-3.61-5.94-1.32 2.66-2.43 4.68-3.44 6.1-1.06-.76-2.09-1.54-3.12-2.31 2.04-2.7 3.5-4.49 4.38-5.39a78.12 78.12 0 0 1-6.44-1.38zm25.56-.71c.43-1.33.83-2.68 1.24-4.03 2.86.97 4.95 1.82 6.24 2.55-.35-3.4-.52-5.74-.52-7.01 1.29-.04 2.61-.09 3.92-.13-.06 1.88-.28 4.21-.63 7.04 1.86-1.04 4.01-2 6.44-2.91.43 1.34.86 2.67 1.26 3.99-2.32.86-4.58 1.45-6.78 1.77 1.09.98 2.66 2.72 4.66 5.25-1.08.84-2.17 1.68-3.26 2.5-1.06-1.49-2.29-3.47-3.75-6.01-1.32 2.7-2.49 4.74-3.49 6.18-1.09-.76-2.18-1.55-3.21-2.34 2.09-2.73 3.58-4.54 4.5-5.46-2.32-.39-4.53-.85-6.62-1.39zm26.25-.73c.43-1.35.86-2.72 1.26-4.08 2.95.98 5.07 1.84 6.41 2.58-.34-3.44-.54-5.82-.54-7.11l4.04-.12c-.06 1.9-.29 4.26-.66 7.12 1.92-1.05 4.12-2.02 6.61-2.95.43 1.36.86 2.71 1.29 4.04-2.38.88-4.7 1.47-6.96 1.81 1.12.99 2.72 2.75 4.78 5.31-1.11.85-2.23 1.71-3.35 2.54-1.05-1.51-2.34-3.52-3.83-6.09-1.35 2.73-2.55 4.8-3.61 6.26-1.09-.78-2.2-1.57-3.26-2.37 2.15-2.77 3.66-4.61 4.61-5.53-2.38-.4-4.64-.87-6.79-1.41z"/></g><g id="prefix__Shield"><path id="prefix__ShieldBase" class="prefix__fil17" d="M1195.93 880.72c-45.31-27.59-87.67-67.93-118.77-114.12-29.99-44.55-50.22-95.67-53.29-148.8-1.89-34.35-1.97-71.55-1.62-108.87.36-37.33 1.22-74.94 1.22-109.86 39.48-5.62 67.47-11.19 92.78-21.31 26.06-10.42 49.05-25.7 79.68-51.28 31.61 16.84 56.88 26.1 87.19 29.66 31.29 3.68 68.41 1.42 125.49-4.81 0 43.08 1.32 89.27 1.85 135.32.53 46.06.4 92.04-2.48 134.46-4.72 65.14-34.38 124.02-75.62 169.91-39.54 44-88.88 75.15-136.43 89.7z"/><path id="prefix__ShieldLockIcon" class="prefix__fil15" d="M1117.43 590.28l8.47-.06v-38.96c0-51.21 34.28-79.37 70.03-82.01 37.08-2.73 75.73 22.19 75.77 77.66v42.2c3.31-.02 6.66-.05 10.04-.07 4.65-.04 8.46 3.95 8.46 8.91.04 46.05.04 92.1.04 138.15 0 4.95-3.85 8.69-8.5 8.35-29.48-2.18-58.1-4.29-85.81-6.34-26.97-1.99-53.11-3.92-78.5-5.79-3.89-.29-7.04-4.16-7.04-8.65.03-41.73.04-83.47.04-125.2 0-4.49 3.11-8.16 7-8.19zm78.5 95.01h-.04c-4.88-.22-8.86-4.86-8.86-10.27v-22.83c0-5.46 3.98-9.79 8.86-9.68h.04c4.92.1 8.93 4.64 8.93 10.16v23.06c0 5.46-4.01 9.78-8.93 9.56zm0-189.38c-24.02 1.42-47.32 20.07-47.32 54.68v39.46c15.47-.12 31.26-.24 47.32-.36 16.29-.13 32.91-.25 49.79-.38v-41.62c0-36.5-25.27-53.23-49.79-51.78z"/></g><g id="prefix__Cloud2"><path id="prefix__Cloud2Base" class="prefix__fil15" d="M1231.78 858.14s16.89-86.07 89.76-72.34c0 0 16.37 1.58 28.52 10.56 0 0 25.34-72.34 105.08-68.12 0 0 67.59 4.23 95.57 76.04 0 0 100.86-6.34 110.36 99.8 72.16 2.51 60.82 100.15 6.34 101.91h-428.24c-62.21-23.39-76.32-119.21-7.39-147.85z"/><path id="prefix__Cloud2SilverLining" d="M1455.14 725.97s72.34 30.1 71.81 98.75c0 0 137.82 22.18 66.01 179h74.45c54.48-1.75 65.82-99.4-6.34-101.91-9.5-106.13-110.36-99.8-110.36-99.8-27.98-71.81-95.57-76.04-95.57-76.04z" fill="url(#prefix__id5)"/></g><g id="prefix__Chart"><g id="prefix__Bar5"><path id="prefix__Bar5Series2" class="prefix__fil13" d="M1841.39 603.96h49.22v309.91h-49.22z"/><path id="prefix__Bar5Series1" class="prefix__fil19" d="M1841.39 387.55h49.22v216.41h-49.22z"/><path id="prefix__Bar5Point" class="prefix__fil20" d="M1866 515.99c-5.53 0-10.57-2.26-14.26-5.92l-.05-.05c-3.66-3.69-5.93-8.73-5.93-14.26 0-5.53 2.27-10.58 5.93-14.26l.05-.05c3.69-3.67 8.73-5.93 14.26-5.93 5.53 0 10.57 2.26 14.26 5.93l.05.05c3.66 3.68 5.93 8.73 5.93 14.26 0 5.53-2.27 10.57-5.93 14.26l-.05.05c-3.69 3.66-8.73 5.92-14.26 5.92zm0-12.5c-4.27 0-7.74-3.46-7.74-7.73a7.74 7.74 0 0 1 7.74-7.74 7.74 7.74 0 0 1 7.74 7.74c0 4.27-3.47 7.73-7.74 7.73z"/></g><g id="prefix__Bar4"><path id="prefix__Bar4Series2" class="prefix__fil13" d="M1776.23 793.23h49.22v120.64h-49.22z"/><path id="prefix__Bar4Series1" class="prefix__fil19" d="M1776.23 684.64h49.22v108.59h-49.22z"/><path id="prefix__Bar4Point" class="prefix__fil20" d="M1800.84 759.17c-5.53 0-10.57-2.27-14.26-5.93l-.05-.05c-3.66-3.69-5.93-8.73-5.93-14.26 0-5.53 2.27-10.57 5.93-14.26l.05-.05c3.69-3.66 8.73-5.93 14.26-5.93 5.53 0 10.57 2.27 14.26 5.93l.05.05c3.66 3.69 5.93 8.73 5.93 14.26 0 5.53-2.27 10.57-5.93 14.26l-.05.05c-3.69 3.66-8.73 5.93-14.26 5.93zm0-12.5c-4.27 0-7.74-3.47-7.74-7.74s3.47-7.74 7.74-7.74 7.74 3.47 7.74 7.74-3.47 7.74-7.74 7.74z"/></g><g id="prefix__Bar3"><path id="prefix__Bar3Series2" class="prefix__fil13" d="M1686.72 651.08h49.22v262.79h-40.5a45.21 45.21 0 0 0-8.72-5.86V651.08z"/><path id="prefix__Bar3Series1" class="prefix__fil19" d="M1686.72 516.7h49.22v134.38h-49.22z"/><path id="prefix__Bar3Point" class="prefix__fil20" d="M1711.33 604.13c-5.53 0-10.58-2.27-14.26-5.93l-.05-.05c-3.66-3.69-5.93-8.73-5.93-14.26 0-5.53 2.26-10.57 5.93-14.26l.05-.05c3.68-3.66 8.73-5.93 14.26-5.93 5.53 0 10.57 2.27 14.26 5.93l.05.05c3.66 3.69 5.92 8.73 5.92 14.26 0 5.53-2.26 10.57-5.92 14.26l-.05.05c-3.69 3.66-8.73 5.93-14.26 5.93zm0-12.5a7.74 7.74 0 0 1-7.74-7.74 7.74 7.74 0 0 1 7.74-7.74c4.27 0 7.73 3.47 7.73 7.74s-3.46 7.74-7.73 7.74z"/></g><g id="prefix__Bar2"><path id="prefix__Bar2Series2" class="prefix__fil13" d="M1607.52 757.78h49.22v119.24c-9.05-33.52-29.01-52.13-49.22-62.44v-56.8z"/><path id="prefix__Bar2Series1" class="prefix__fil19" d="M1607.52 684.34h49.22v73.44h-49.22z"/><path id="prefix__Bar2Point" class="prefix__fil20" d="M1632.13 741.3c-5.53 0-10.57-2.27-14.26-5.93l-.04-.05c-3.67-3.69-5.93-8.73-5.93-14.26 0-5.53 2.26-10.58 5.93-14.26l.04-.05c3.69-3.66 8.73-5.93 14.26-5.93 5.54 0 10.58 2.27 14.26 5.93l.05.05c3.67 3.68 5.93 8.73 5.93 14.26 0 5.53-2.26 10.57-5.93 14.26l-.05.05c-3.68 3.66-8.72 5.93-14.26 5.93zm0-12.5c-4.27 0-7.73-3.47-7.73-7.74 0-4.28 3.46-7.74 7.73-7.74 4.28 0 7.74 3.46 7.74 7.74a7.74 7.74 0 0 1-7.74 7.74z"/></g><g id="prefix__Bar1"><path id="prefix__Bar1Series2" class="prefix__fil13" d="M1528.45 682.22h49.22V804.4c-15.52-3.1-26.96-2.39-26.96-2.39-5.96-15.31-13.73-27.54-22.26-37.32v-82.47z"/><path id="prefix__Bar1Series1" class="prefix__fil19" d="M1528.45 601.75h49.22v80.47h-49.22z"/><path id="prefix__ChartConector" class="prefix__fil17" d="M1429.6 862.66c-3.78 0-6.84-3.06-6.84-6.84 0-3.77 3.06-6.83 6.84-6.83 3.77 0 6.83 3.06 6.83 6.83 0 3.78-3.06 6.84-6.83 6.84zm113.35-196.34c-3.77 0-6.83-3.06-6.83-6.84 0-3.77 3.06-6.83 6.83-6.83 3.78 0 6.84 3.06 6.84 6.83 0 3.78-3.06 6.84-6.84 6.84zm-18.89 32.72c-3.78 0-6.84-3.06-6.84-6.83 0-3.78 3.06-6.84 6.84-6.84s6.84 3.06 6.84 6.84c0 3.77-3.06 6.83-6.84 6.83zm-18.89 32.73c-3.78 0-6.84-3.06-6.84-6.84s3.06-6.84 6.84-6.84 6.84 3.06 6.84 6.84-3.06 6.84-6.84 6.84zm-18.89 32.72c-3.78 0-6.84-3.06-6.84-6.84 0-3.77 3.06-6.83 6.84-6.83 3.77 0 6.83 3.06 6.83 6.83 0 3.78-3.06 6.84-6.83 6.84zm-18.9 32.72c-3.77 0-6.83-3.06-6.83-6.83 0-3.78 3.06-6.84 6.83-6.84 3.78 0 6.84 3.06 6.84 6.84 0 3.77-3.06 6.83-6.84 6.83zm-18.89 32.73c-3.77 0-6.83-3.06-6.83-6.84s3.06-6.84 6.83-6.84c3.78 0 6.84 3.06 6.84 6.84s-3.06 6.84-6.84 6.84z"/><path id="prefix__Bar1Point" class="prefix__fil20" d="M1553.06 662.22c-5.53 0-10.57-2.26-14.26-5.93l-.05-.05c-3.66-3.68-5.93-8.73-5.93-14.26 0-5.53 2.27-10.57 5.93-14.26l.05-.05c3.69-3.66 8.73-5.92 14.26-5.92 5.53 0 10.57 2.26 14.26 5.92l.05.05c3.66 3.69 5.93 8.73 5.93 14.26 0 5.53-2.27 10.58-5.93 14.26l-.05.05c-3.69 3.66-8.73 5.93-14.26 5.93zm0-12.5a7.74 7.74 0 0 1-7.74-7.74c0-4.27 3.47-7.73 7.74-7.73s7.74 3.46 7.74 7.73a7.74 7.74 0 0 1-7.74 7.74z"/></g><path id="prefix__Trendline" d="M1800.84 738.93L1866 495.76m-312.94 146.22l79.07 79.08m0 0l79.2-137.17m0 0l89.51 155.04" fill="none" stroke="#0074af" stroke-width="8.33" stroke-linecap="round" stroke-miterlimit="22.926"/><path id="prefix__ChartStartPoint" d="M1403.41 919.06c-10.23 0-19.49-4.15-26.2-10.85v-.08c-6.7-6.71-10.85-15.94-10.85-26.11 0-10.23 4.15-19.49 10.85-26.2 6.71-6.7 15.97-10.85 26.2-10.85 10.22 0 19.49 4.15 26.19 10.85 6.7 6.71 10.85 15.97 10.85 26.2 0 10.22-4.15 19.48-10.85 26.19-6.71 6.7-15.97 10.85-26.19 10.85zm0-20.83c-8.96 0-16.22-7.26-16.22-16.21 0-8.96 7.26-16.22 16.22-16.22 8.95 0 16.21 7.26 16.21 16.22 0 8.95-7.26 16.21-16.21 16.21z" fill="#0072b1"/></g><g id="prefix__Cloud1"><path id="prefix__Cloud1Base" class="prefix__fil15" d="M124.04 254.91s25-127.34 132.81-107.03c0 0 24.22 2.35 42.19 15.63 0 0 37.5-107.03 155.47-100.78 0 0 100 6.25 141.4 112.5 0 0 149.22-9.38 163.29 147.65 106.75 3.72 89.98 148.18 9.37 150.78H134.98c-92.04-34.61-112.92-176.37-10.94-218.75z"/><path id="prefix__Cloud1SilverLining" d="M454.51 62.73s107.03 44.53 106.25 146.09c0 0 203.91 32.81 97.66 264.84h110.15c80.61-2.6 97.38-147.06-9.37-150.78-14.07-157.03-163.29-147.65-163.29-147.65-41.4-106.25-141.4-112.5-141.4-112.5z" fill="url(#prefix__id6)"/></g><g id="prefix__Key"><path id="prefix__KeyHolder" d="M414.96 188.61l33.26 40.91v56.76l-33.26 40.91c-4.91 6.04-11.61 9.23-19.4 9.23H330.8c-13.72 0-24.93-11.15-25-24.88l-.52-107.03c-.03-6.91 2.41-12.87 7.28-17.76 4.87-4.9 10.82-7.37 17.72-7.37h65.28c7.79 0 14.49 3.19 19.4 9.23zm-52.61 91.74h-15.01c-4.12 0-7.5-3.38-7.5-7.5v-30.01c0-4.12 3.38-7.49 7.5-7.49h15.01c4.12 0 7.49 3.37 7.49 7.49v30.01c0 4.12-3.37 7.5-7.49 7.5z" fill="url(#prefix__id2)"/><path id="prefix__KeyHoleBorder" class="prefix__fil17" d="M362.35 292.78h-15.01c-5.52 0-10.54-2.25-14.18-5.89-3.62-3.63-5.88-8.61-5.88-14.04v-30.01c0-5.43 2.26-10.41 5.88-14.04 3.64-3.63 8.66-5.89 14.18-5.89h15.01c5.52 0 10.54 2.26 14.18 5.89 3.62 3.63 5.88 8.61 5.88 14.04v30.01c0 5.43-2.26 10.41-5.88 14.04-3.64 3.64-8.66 5.89-14.18 5.89zm0-12.43h-15.01c-4.12 0-7.5-3.38-7.5-7.5v-30.01c0-4.12 3.38-7.49 7.5-7.49h15.01c4.12 0 7.49 3.37 7.49 7.49v30.01c0 4.12-3.37 7.5-7.49 7.5z"/><path id="prefix__KeyInsertionBottom" d="M527.35 302.81l12.42-9.02-6.31-19.43 16.94-.01 16.1-13.85c1.6-1.38 2.44-3.19 2.44-5.3H448.22v19.16h15.19l-6.31 19.44 12.41 9.02c2.5 1.81 5.74 1.81 8.23 0l12.42-9.02-6.31-19.44h29.17l-6.31 19.43 12.41 9.02c2.5 1.82 5.74 1.82 8.23 0z" fill="url(#prefix__id0)"/><path id="prefix__KeyInsertionTop" d="M568.94 255.2c0-2.12-.84-3.93-2.44-5.31l-16.1-13.85-102.18-.01v19.17h120.72z" fill="url(#prefix__id1)"/></g><g id="prefix__Character"><path id="prefix__CharacterLeftHandPart1" fill="#a78557" d="M250.59 455.35l59.81 23.38-14.06 16.41-46.68-3.51-4.89-33.01z"/><g id="prefix__Laptop"><path id="prefix__LaptopKeyboard" fill="#358dbb" d="M250.81 497.8l3.04-.38h31.43l3.52-7.83-42.09-1.66z"/><path id="prefix__LaptopBody" class="prefix__fil17" d="M314.97 392.52l73.13 4.24c1.54.09 2.84.8 3.75 2.05.91 1.25 1.19 2.69.8 4.19l-23 89.19c-.54 2.06-2.21 3.5-4.32 3.73l-79.2 8.39 26.99-110.86 1.85-.93z"/><ellipse id="prefix__LaptopLogo" class="prefix__fil15" transform="matrix(1.59847 .4283 -.3902 1.45623 351.306 444.769)" rx="4.1" ry="5.76"/><path id="prefix__LaptopBorder" d="M253.85 497.42h31.43l21.88-101.04c.51-2.38 2.6-4.01 5.02-3.94l2.79.08-24.51 107.92a4.947 4.947 0 0 1-4.87 3.9h-33.8l2.06-6.92z" fill="#025a8a"/></g><path id="prefix__CharacterLeftHandPart2" class="prefix__fil30" d="M291.84 504.22s33.01 5.08 34.87 3.03c1.92-1.15 3.78 1.75 6.15-.98 14.56-.99 12.81.8 13.53-18.49.09-2.38-.38-5.43-3.51-4.28-3.72 1.36-3.18 10.29-3.48 14.28 0 0-3.61 1.66-2.44-2.15 0 0 2.15-1.37.59-7.81-.06-2.34-.79-13.15-4.76-11.88-3.67 1.19.04 13.26-.52 15.69l-2.54 6.93c2.77-10.13 1.98-6.23 1-18.61-.3-3.74-5.43-3.31-5.49-.35v13.29l-3.41 6.6c-.09-6.92 1.28-17.46-2.59-17.09-4.06.38-4.15 12.25-5.09 19.35l-.04.28-22.27 2.19z"/><path id="prefix__CharacterRightLeg" class="prefix__fil30" d="M150.02 973.63s-1.27 3.32-.3 4.01c0 0 .88 2.24.39 3.61l.49 7.52 11.53 11.92 19.92-10.16-8.69-11.14.09-5.37-12.5-11.52-10.93 11.13z"/><path id="prefix__CharacterRightShoeSole" class="prefix__fil31" d="M151.02 1007.05c3.01 3.83 7.77 9.37 12.53 10.87 6.42 1.84 20.52 1.67 27.24 1.16 5.06-.38 22.43-1.55 18.8-10.63l-42.33-1.57c-6.89-4.1-13.77-8.2-20.66-12.3-1.36 5.86-.63 5.61 2.72 10.18.56.77 1.11 1.53 1.7 2.29z"/><path id="prefix__CharacterRightShoe" class="prefix__fil32" d="M191.38 997.8s1.85 3.03 6 3.37c4.15.35 12.31 4.64 12.21 7.28 0 0-51.66 17.19-62.99-13.87 0 0-.84-8.17 3.5-15.64.91 7.63 3.94 15.31 11.15 19.03 1.66.86 1.96-1.21 2.81-2.33 6.71-8.88 20.9-15.39 27.32 2.16z"/><path id="prefix__CharacterLeftLeg" class="prefix__fil30" d="M256.29 964.54l.37 14.47 4.49 10.45 26.57 10.15 14.06-12.79-2.93-2.93-14.16-5.86.68-16.02-28.51-2.54z"/><path id="prefix__CharacterLeftShoeSole" class="prefix__fil31" d="M251.64 1000.78s-.79 3.46.87 4.15c2.19.79 16.07 1.39 18.98 1.44 2.16.04 3.69.07 5.83-.29 2.87-.48 7 .71 9.76 1.68 0 0 52.25 10.84 62.51-3.13 0 0 1.33-3.19-2.93-4.39l-37.41.68-57.61-.14z"/><path id="prefix__CharacterLeftShoeBase" class="prefix__fil32" d="M256.76 979.83s-2.34-.14-2 1.81c.34 1.95.54 5.42.54 5.42s-3.81 11.13-3.66 13.72c0 0 5.56 1.71 31.25.44 0 0 7.03-.78 13.18 1.66 0 0 33.89 8.89 50.59-2.64-9.81-2.75-19.63-5.47-29.43-8.23-3.88-1.09-4.39-2.09-7.65-3.85-7.55-4.07-16.42-5.86-21.12 3.18l-.2.41s-2.54 7.03-14.26.19c-11.72-6.83-17.24-12.11-17.24-12.11z"/><path id="prefix__CharacterBottomBase" class="prefix__fil32" d="M130.97 559.97s-6.39 43.26 5.33 66.7l8.39 346.87 35.55.59 27.74-295.31s.68-2.74 2.83 6.05l26.56 93.95 16.4 185.55 39.85 2.73-1.95-197.46-34.34-208.19-94.96-5.48-31.4 4z"/><path id="prefix__CjaracterBottomShadow" fill="url(#prefix__id8)" d="M207.98 678.82l5.55-60.36 11.53-3.71 12.31 164.07z"/><path id="prefix__CharacterTopShadow" d="M170.31 401.05c16.08 25.73 20.81 87.78 5.02 113.82l-33.72.24s7.06-38.2 2.53-60.74c-.92-4.6 10.61-28.79 10.61-28.79.62-5.64-.51-12.83 1.96-17.3 3.85-6.95 13.6-7.23 13.6-7.23z" fill="url(#prefix__id7)"/><path id="prefix__CharacterTopBase" d="M162.5 341.28s-33.6 8.6-36.92 25l-13.28 37.89 42.45 21.41c.51-.12 1.01-.29 1.5-.5 4.16-9.02 14.06-24.03 14.06-24.03 16.08 25.73 20.81 87.78 5.02 113.82l-33.72.24s-10.94 32.82-12.11 44.53c0 0 57.81 13.68 129.29 1.57l-8.2-105.86s25.78-49.22-14.45-98.44c-.06-.03-9.44-1.67-7.56 3.97 7.8 23.41-9.45 11.46-18.11 4.07-4.83-4.11-11.27-.83-12.85 1.5-1.01 1.48-2.57 5.34-7.24 3.91-1.35-.42-31.06-20.52-27.88-29.08zm7.81 59.77z" fill="#837b6e"/><path id="prefix__CharacterRightHand" class="prefix__fil30" d="M117.06 406.57l-19.51 61.35c-2.75 8.57-4.72 11.39-2.98 20.36 2.96 15.23 14.19 16.18 26.4 13.6l26.9-4.42 88.72-16.28s4.01 6.34 12.02 2.05c2.27 4.21 5.87 13.74 9.51 9.91 2.28-2.39-2.92-14.07-5.32-15.65-.76-.5 1.07.74 1.12.78 6.28 4.88 5.91 18.05 12.17 15.28 4.2-1.86-2.55-14.67-2.83-15.01l-3.72-2.78 4.64 2.63 6.2 13.53s4.94 4.78 6.01-.34c1.34-3.57-3.7-15.66-6.98-18.26 2.67 2 2.37 3.71 6.49 3.47 1.74 5.37 4.13 17.93 8.82 14.7 3.35-2.31-2.75-17.19-2.86-18.9 0 0 1.08-5.57-24.7-7.03-25.79-1.47-116.41-2.45-116.41-2.45l14.06-37.69-37.75-18.85z"/><path id="prefix__CharacterFaceBase" d="M228.58 360.88c7.8 23.41-9.45 11.46-18.11 4.07-7.32-6.23-32.64-22.52-38.28-30.22L204 299.04l-16.3-3.03.78-32.32 63.19-9.39c4.05 20.12-.39 13.2 6.14 33.68 1.93 6.07.24 7.76-6.25 8.72-.55 8.22-3 21.82-7.58 28.51-1.63 2.38-3.41 1.86-5.92 1.86h-16.87l-4.69 14.94s9.28 2.15 12.08 18.87z" fill="#f6bd92"/><path id="prefix__CharacterFaceShadow" d="M207.28 298.85c-9.24 2.04 7.32 35.53 10.02 40.64l3.89-12.42h12.88c-2.78-2.72-23.7-7.17-24.33-18.88-.08-1.56-.06-9.64-2.46-9.34z" fill="url(#prefix__id4)"/><path id="prefix__CharacterCollars" d="M228.33 359.53c-.02-4.01 7.76-2.65 7.81-2.62 0 0 1.68-.26.9-1.63-.76-1.33-5.74-15.16-19.74-15.79l-.8 2.52s8.78 2.03 11.83 17.52zm-17.86 5.42c-4.83-4.11-11.27-.83-12.85 1.5-1.01 1.48-2.57 5.34-7.24 3.91-1.35-.42-31.06-20.52-27.88-29.08 3.18-8.55 9.69-6.55 9.69-6.55l38.28 30.22z" fill="#575755"/><path id="prefix__CharacterHair" d="M198.87 346.02s-32.23-12.69-33.89-20.21c-1.66-7.52-31.73-71.1 20.22-97.27 5.8-2.62 14.37-4.58 20.6-5.26 17.3-1.85 32.96 2.67 44.35 16.33 2.32 2.78 2.13 3.13 2.24 6.67.34 10.71-4 20.27-13.88 25.15-2.9 1.41-5.81 2.23-8.98 2.81 0 0-16.09 8.11-12.89 32.62-7.85-1.53-9.28-20.7-9.25-27.19.04-9.88-8.01-12.72-12.76-6.87-6.88 8.46 2.59 25.09 9.71 25.47 0 0-5.08 42.96-5.47 47.75z" fill="#4f423c"/><path id="prefix__CharacterSpectacles" d="M206.98 273.06l46.05-4.93v-4.39c4.45-3.62 5.59 22.94.29 23.05l-.68-13.43-45.69 2.52c-.27-1.03-.65-1.93-1.11-2.71l1.14-.11zm-14.31 3.61l-.09.01s-1.96-1.71.68-2.3l.33-.03c-.4.74-.7 1.51-.92 2.32z" fill="#302f2d"/></g></g></g></svg>