<svg xmlns="http://www.w3.org/2000/svg" width="213" height="166" viewBox="0 0 106.65 83.28" shape-rendering="geometricPrecision" text-rendering="geometricPrecision" image-rendering="optimizeQuality" fill-rule="evenodd" clip-rule="evenodd"><path d="M96.63 0h5.45c2.52 0 4.57 2.16 4.57 4.8v73.67c0 2.65-2.06 4.81-4.57 4.81H4.58C2.06 83.28 0 81.12 0 78.47V4.8C0 2.16 2.06 0 4.58 0h92.05zm-43.3 53.64c-2.92 0-5.31-2.5-5.31-5.57V35.2c0-3.06 2.39-5.56 5.31-5.56 2.92 0 5.3 2.5 5.3 5.56v12.87c0 3.07-2.38 5.57-5.3 5.57z" fill="#0061fe"/></svg>