<svg xmlns="http://www.w3.org/2000/svg" width="1772" height="1769" viewBox="0 0 331.09 330.56" shape-rendering="geometricPrecision" text-rendering="geometricPrecision" image-rendering="optimizeQuality" fill-rule="evenodd" clip-rule="evenodd"><path d="M290.5 170.35v.54l-10.68-10.69h-34.17v48.07h-58.74v-16.02h-16.03v-48.07h84.38c24.03 0 43.79-19.22 43.79-42.72 0-17.62-10.68-33.11-27.24-39.51 1.07-3.21 1.61-6.95 1.61-10.68 0-21.37-17.63-38.99-39.52-38.99-6.94 0-13.89 1.6-19.76 5.34C200.79 5.87 183.7 0 165.55 0c-24.04 0-45.93 11.21-59.81 29.9-8.55-2.66-40.59-1.6-47.53 32.05-16.02 6.94-26.17 21.89-26.17 38.98 0 23.5 19.76 42.72 43.79 42.72h84.37v48.06h-16.02v16.02H85.44v-37.38H44.86l-10.68-10.68H0v80.1h85.44v-21.36h58.74v16.02h16.02v19.23l-3.2-3.21h-34.18v80.11h85.45v-69.43h-37.38v-26.7h16.02v-16.02h58.74v21.36h85.44v-69.42H290.5zM74.76 229.63H10.68v-32.04h64.08v32.04zm0-42.72H10.68v-16.02H29.9l10.69 10.68h34.17v5.34zm1.07-53.94c-18.16.53-33.11-13.88-33.11-31.51 0-25.1 25.63-31.5 25.63-31.5 0-24.57 24.03-35.25 42.19-27.24 0 0 16.56-32.04 55.54-32.04 30.44 0 47.53 20.83 47.53 20.83 27.77-23.5 63.01 7.47 44.32 36.84 0 0 30.97 4.28 30.97 32.58 0 17.62-14.95 32.04-33.11 32.04H75.83zm121.76 187.44H133.5v-32.04h64.09v32.04zm0-48.06v5.34H133.5v-16.02h19.23l10.68 10.68h34.18zm-21.37-48.06h-21.36v-21.36h21.36v21.36zm144.19 5.34h-64.08v-32.04h64.08v32.04zm0-42.72h-64.08v-16.02h19.22l10.68 10.68h34.18v5.34z" fill="#eee"/></svg>