<svg xmlns="http://www.w3.org/2000/svg" width="1686" height="1657" viewBox="0 0 305.35 299.99" shape-rendering="geometricPrecision" text-rendering="geometricPrecision" image-rendering="optimizeQuality" fill-rule="evenodd" clip-rule="evenodd"><path d="M50.89 182.14h41.96a5.36 5.36 0 0 0 0-10.72H50.89c-22.15 0-40.18-18.02-40.18-40.17 0-20.63 15.46-37.81 35.94-39.95 3.54-.37 5.75-4.08 4.4-7.37-10.13-24.53 7.92-51.79 34.66-51.79 10.47 0 20.56 4.47 27.67 12.26 2.47 2.71 6.75 2.17 8.56-.87 12.23-20.55 33.73-32.81 57.52-32.81 39.78 0 71.03 34.65 66.5 74.55-.34 3 2.44 6.15 6.12 5.92 23.11-1.45 42.55 17.03 42.55 40.06 0 22.15-18.02 40.17-40.18 40.17h-61.6a5.36 5.36 0 0 0 0 10.72h61.6c28.07 0 50.9-22.83 50.9-50.89 0-27.19-21.43-49.46-48.27-50.83C258.8 36.82 223.44 0 179.46 0c-24.98 0-48.58 12.3-63.09 32.49-8.59-7.09-19.45-11.06-30.66-11.06-31.65 0-54.56 30.05-46.67 60.31C16.38 87.1 0 107.34 0 131.25c0 28.06 22.83 50.89 50.89 50.89zm163.39 91.06h-16.83c-2.4-9.21-10.72-16.07-20.67-16.07-9.96 0-18.27 6.86-20.67 16.07H26.78c-2.95 0-5.35 2.4-5.35 5.36 0 2.96 2.4 5.36 5.35 5.36h129.33c2.4 9.21 10.71 16.07 20.67 16.07 9.95 0 18.27-6.86 20.67-16.07h16.83a5.36 5.36 0 0 0 0-10.72zm-37.5 16.08c-5.91 0-10.72-4.81-10.72-10.72 0-5.91 4.81-10.71 10.72-10.71 5.91 0 10.71 4.8 10.71 10.71 0 5.91-4.8 10.72-10.71 10.72zm107.14-16.08h-39.75l-19.88-34.79a5.364 5.364 0 0 0-4.65-2.7h-48.22c-2.96 0-5.36 2.39-5.36 5.35 0 2.96 2.4 5.36 5.36 5.36h45.11l19.88 34.8c.95 1.67 2.73 2.7 4.65 2.7h42.86a5.36 5.36 0 0 0 0-10.72zm5.36-64.28h-112.5v-43.61c9.21-2.4 16.07-10.72 16.07-20.67 0-11.82-9.61-21.43-21.43-21.43-11.81 0-21.42 9.61-21.42 21.43 0 9.95 6.85 18.27 16.06 20.67v48.97c0 2.96 2.4 5.36 5.36 5.36h117.86c2.95 0 5.35-2.4 5.35-5.36 0-2.96-2.4-5.36-5.35-5.36zm-128.57-64.28c0-5.91 4.8-10.72 10.71-10.72 5.91 0 10.72 4.81 10.72 10.72 0 5.91-4.81 10.71-10.72 10.71-5.91 0-10.71-4.8-10.71-10.71zm-80.36 64.28c-2.95 0-5.35 2.4-5.35 5.36 0 2.96 2.4 5.36 5.35 5.36h37.5c2.96 0 5.36-2.4 5.36-5.36V150c0-1.26-.44-2.47-1.24-3.43L98.5 118.41c8.99-14.42-1.56-32.7-18.15-32.7-11.81 0-21.42 9.61-21.42 21.43 0 15.94 17.13 26.81 31.77 18.64l21.8 26.15v56.99H80.35zM69.64 107.14c0-5.91 4.81-10.71 10.71-10.71 5.91 0 10.72 4.8 10.72 10.71 0 2.07-.62 3.99-1.64 5.63-.63.21-1.25.52-1.79.97-.79.66-1.25 1.52-1.56 2.42a10.585 10.585 0 0 1-5.73 1.69c-5.9 0-10.71-4.8-10.71-10.71zm69.64 149.99c2.96 0 5.36-2.39 5.36-5.35V112.5h43.61c2.4 9.21 10.72 16.07 20.67 16.07 11.82 0 21.43-9.62 21.43-21.43s-9.61-21.43-21.43-21.43c-9.95 0-18.27 6.86-20.67 16.07h-48.97a5.36 5.36 0 0 0-5.36 5.36v139.28H26.78v-16.83c9.22-2.4 16.08-10.71 16.08-20.67 0-11.81-9.62-21.43-21.43-21.43C9.61 187.49 0 197.11 0 208.92c0 9.96 6.86 18.27 16.07 20.67v22.19c0 2.96 2.4 5.35 5.36 5.35h117.85zm69.64-160.7c5.91 0 10.72 4.8 10.72 10.71 0 5.91-4.81 10.71-10.72 10.71-5.91 0-10.71-4.8-10.71-10.71 0-5.91 4.8-10.71 10.71-10.71zM10.71 208.92c0-5.91 4.81-10.71 10.72-10.71 5.91 0 10.71 4.8 10.71 10.71 0 5.91-4.8 10.72-10.71 10.72-5.91 0-10.72-4.81-10.72-10.72z" fill="#eee"/></svg>