<svg xmlns="http://www.w3.org/2000/svg" width="1672" height="1672" viewBox="0 0 297.91 297.91" shape-rendering="geometricPrecision" text-rendering="geometricPrecision" image-rendering="optimizeQuality" fill-rule="evenodd" clip-rule="evenodd"><path d="M135.72 27.24c-4.51-1.6-9.25-2.41-14.07-2.41v9.93c3.69 0 7.31.62 10.75 1.84l3.32-9.36zM114.2 134.06h-9.93v39.72a4.97 4.97 0 0 0 4.97 4.97h14.89v-9.93h-9.93v-34.76zm74.48-44.69h-14.9v9.93h9.93v34.76h9.93V94.34c0-2.74-2.22-4.97-4.96-4.97zm-39.72 0h14.89v9.93h-14.89v-9.93zm-14.9 79.45h19.86v9.93h-19.86v-9.93zm4.97-79.45h-29.79a4.97 4.97 0 0 0-4.97 4.97v29.79h9.93V99.31l24.83-.01v-9.93zm44.68 79.45h-19.86v9.93h24.83c2.74 0 4.96-2.23 4.96-4.97v-29.79h-9.93v24.83zm-19.86-19.86h9.93v9.93h-9.93v-9.93zm0-19.86h9.93v9.93h-9.93v-9.93zm0-19.86h9.93v9.93h-9.93v-9.93zm-19.86 39.72h9.93v9.93h-9.93v-9.93zm0-19.86h9.93v9.93h-9.93v-9.93zm0-19.86h9.93v9.93h-9.93v-9.93zm-19.86 39.72h9.93v9.93h-9.93v-9.93zm0-19.86h9.93v9.93h-9.93v-9.93zm0-19.86h9.93v9.93h-9.93v-9.93zm19.86 178.74h9.93v9.93h-9.93v-9.93zm-44.69 0h9.94v9.93H99.3v-9.93zm-44.68 0h9.93v9.93h-9.93v-9.93zm-39.72 0h9.93v9.93H14.9v-9.93zm173.78 0h9.93v9.93h-9.93v-9.93zm44.69 0h9.93v9.93h-9.93v-9.93zm39.72 0h9.93v9.93h-9.93v-9.93zm-24.83-66.6v-18.7c28.13-4.75 49.65-29.22 49.65-58.69 0-41.66-41.72-70.14-80.1-55.92-2.89-13.45-14.85-23.52-29.18-23.52C187.33 28.73 157.78 0 121.65 0 81.42 0 50.19 35.36 55.12 75.24 23.8 79.83 0 106.86 0 139.03c0 30.45 21.23 55.99 49.65 62.74v19.61l-33.3 33.3c-.93.93-1.45 2.2-1.45 3.51v19.86h9.93v-17.8l33.3-33.3c.93-.93 1.45-2.2 1.45-3.51v-20.12c5.99.47 13.71.25 19.86.25v27.74l-23.37 23.37c-.93.93-1.45 2.2-1.45 3.51v19.86h9.93v-17.8l23.37-23.37c.93-.93 1.45-2.2 1.45-3.51v-29.8h24.83v37.67l-13.44 13.44c-.93.93-1.46 2.2-1.46 3.51v19.86h9.94v-17.8l13.44-13.44c.93-.93 1.45-2.2 1.45-3.51v-39.73h19.86v74.48h9.93v-74.48h19.86v39.73c0 1.31.52 2.58 1.46 3.51l13.44 13.44v17.8h9.93v-19.86c0-1.31-.52-2.58-1.46-3.51l-13.44-13.44v-37.67h24.83v29.8c0 1.31.52 2.58 1.45 3.51l23.38 23.37v17.8h9.93v-19.86c0-1.31-.52-2.58-1.46-3.51l-23.37-23.37v-27.74h19.86v19.87c0 1.31.52 2.58 1.46 3.51l33.3 33.3v17.8h9.93v-19.86c0-1.31-.52-2.58-1.46-3.51l-33.3-33.3zM64.55 193.64c-30.12 0-54.62-24.5-54.62-54.61 0-28.77 22.51-52.68 51.24-54.44 3-.19 5.16-3.02 4.56-5.96-7.28-35.48 19.8-68.7 55.92-68.7 31.48 0 57.1 25.62 57.1 57.1 0 2.42-.82 4.75 1.59 6.8 1.17 1 2.73 1.4 4.24 1.08 12.49-2.63 23.96 7.14 23.95 19.35-.02.14-.09.77-.1.92-.23 3.77 3.8 6.43 7.23 4.67 33.08-16.97 72.32 7.15 72.32 44.14 0 27.38-22.27 49.65-49.65 49.65H64.55zm43.03-166.4C90.75 33.21 79.44 49.2 79.44 67.03h9.93c0-13.64 8.65-25.87 21.52-30.43l-3.31-9.36z" fill="#eee"/></svg>