<svg xmlns="http://www.w3.org/2000/svg" width="1920" height="1080" viewBox="0 0 1920 1079.93" shape-rendering="geometricPrecision" text-rendering="geometricPrecision" image-rendering="optimizeQuality" fill-rule="evenodd" clip-rule="evenodd"><defs><style>.prefix__fil5{fill:#0173b1}.prefix__fil6{fill:#024065}.prefix__fil4{fill:#025a8c}.prefix__fil25{fill:#358dbf}.prefix__fil10{fill:#3ba0f3}.prefix__fil8{fill:#48a9b2}.prefix__fil7{fill:#68a6cb}.prefix__fil9{fill:#69a7cc}.prefix__fil13{fill:#92ceff}.prefix__fil19{fill:#be6a48}.prefix__fil15{fill:#c7cfe2}.prefix__fil1{fill:#d6d0c4}.prefix__fil14{fill:#d7deed}.prefix__fil12{fill:#e1e6f2}.prefix__fil11{fill:#eff2fa}.prefix__fil16{fill:#fffaee}.prefix__fil2{fill:#fff}</style><linearGradient id="prefix__id0" gradientUnits="userSpaceOnUse" x1="498.06" y1="427.71" x2="504.23" y2="478.33"><stop offset="0" stop-color="#a75c3d"/><stop offset="1" stop-color="#be6a48"/></linearGradient><linearGradient id="prefix__id1" gradientUnits="userSpaceOnUse" x1="408.34" y1="796.23" x2="411.56" y2="665.11"><stop offset="0" stop-color="#443c2f"/><stop offset="1" stop-color="#3b3529"/></linearGradient><linearGradient id="prefix__id2" gradientUnits="userSpaceOnUse" x1="391.2" y1="607.19" x2="417.98" y2="568.75"><stop offset="0" stop-color="#358dbf"/><stop offset="1" stop-color="#2a76a7"/></linearGradient><linearGradient id="prefix__id3" gradientUnits="userSpaceOnUse" x1="976.23" y1="273.28" x2="1217.14" y2="758.79"><stop offset="0" stop-color="#dcdcde"/><stop offset="1" stop-color="#fefefe"/></linearGradient></defs><g id="prefix__Layer"><g id="prefix__Image"><g id="prefix__Background"><path id="prefix__BackgroundBase" fill="#ebe5d9" d="M0 0h1920v1079.94H0z"/><path id="prefix__BackgroundGraphics" class="prefix__fil1" d="M1111.62 784.58c26.54 0 41.06 17.24 41.61 17.24 37 37 10.63 100.47-41.61 100.47-13.21 0-25.41-4.36-35.23-11.71L941.4 975.99H0v-29.17h933.72l124.53-78.64c-3.05-6.47-5.49-14.76-5.49-24.74 0-32.36 26.5-58.86 58.86-58.86zM1920 233.66l-108.56-1.22c-.65-5.74-2.47-12.46-6.7-19.32-13.69-22.23-43.1-29.22-65.33-15.54-18.24 11.23-20.92 29.22-21.29 29.45-9.77 41.07 35.2 73.52 71.09 51.42a47.31 47.31 0 0 0 19.25-22.95l111.54 1.36v-23.2zm-168.25-16.04c-11.26 6.94-14.77 21.69-7.84 32.96 6.94 11.26 21.69 14.77 32.96 7.83 11.26-6.93 14.77-21.69 7.83-32.95-6.93-11.27-21.69-14.78-32.95-7.84zM0 588.4l117.13-1.32c.65-5.74 2.48-12.46 6.7-19.32 13.69-22.23 43.1-29.22 65.33-15.54 18.24 11.23 20.92 29.22 21.3 29.45 9.76 41.07-35.21 73.52-71.1 51.42-9.07-5.59-15.61-13.74-19.24-22.95L0 611.6v-23.2zm176.82-16.14c11.27 6.94 14.77 21.69 7.84 32.96-6.94 11.26-21.69 14.77-32.96 7.83-11.26-6.93-14.77-21.69-7.83-32.95 6.93-11.27 21.69-14.77 32.95-7.84zm188.5 299.23h476.06c6.64 14.3 17.98 24.21 37.92 24.21s41.79-18.71 41.79-41.79-20.72-41.8-41.79-41.8-35.14 12.77-40.16 30.21H373l-7.68 29.17zM0 98.64l64.63 78.77H573.5c6.64 14.3 21.13 24.21 37.93 24.21 23.08 0 41.79-18.71 41.79-41.79s-18.71-41.79-41.79-41.79c-19.07 0-35.15 12.76-40.17 30.21H72.31L0 63.74v34.9zm1920 556.09l-195.65-129.15h-399.21v29.16h391.53L1920 689.63v-34.9zM469.43 620.39c26.54 0 41.06-17.25 41.61-17.25 37-36.99 10.63-100.46-41.61-100.46-13.21 0-25.41 4.35-35.23 11.7l-134.99-85.4H0v29.17h291.53l124.53 78.63c-3.05 6.48-5.49 14.77-5.49 24.75 0 32.36 26.5 58.86 58.86 58.86zm0-29.17c16.39 0 29.69-13.29 29.69-29.69 0-16.4-13.3-29.69-29.69-29.69-16.4 0-29.69 13.29-29.69 29.69 0 16.4 13.29 29.69 29.69 29.69zm642.19 222.53c16.39 0 29.68 13.29 29.68 29.69 0 16.39-13.29 29.68-29.68 29.68-16.4 0-29.69-13.29-29.69-29.68 0-16.4 13.29-29.69 29.69-29.69z"/></g><g id="prefix__Cloud5"><path id="prefix__Cloud5Base" class="prefix__fil2" d="M585.79 500.34s29.54-150.45 156.92-126.45c0 0 28.61 2.77 49.84 18.46 0 0 44.3-126.45 183.68-119.07 0 0 118.14 7.38 167.07 132.91 0 0 176.29-11.07 192.91 174.45 126.13 4.39 106.31 175.07 11.07 178.15H598.71c-108.73-40.89-133.4-208.38-12.92-258.45z"/><path id="prefix__Cloud5SilverLining" d="M976.23 273.28s126.45 52.61 125.53 172.6c0 0 240.91 38.77 115.38 312.91h130.14c95.24-3.08 115.06-173.76-11.07-178.15-16.62-185.52-192.91-174.45-192.91-174.45-48.93-125.53-167.07-132.91-167.07-132.91z" fill="url(#prefix__id3)"/></g><g id="prefix__Server1"><path id="prefix__Server1Side" class="prefix__fil4" d="M1047.64 166.8l57.34 12.41v472.06l-57.34 12.41z"/><path id="prefix__Server1Base" class="prefix__fil5" d="M776.55 166.8h271.09v496.88H776.55z"/><g id="prefix__Server1Locker1"><path id="prefix__Server1Locker1Base" class="prefix__fil6" d="M799.98 436.33h224.22V556.5H799.98z"/><rect id="prefix__Server1Locker1Indicator" class="prefix__fil7" x="997.38" y="457.93" width="15" height="15" rx="5" ry="5"/></g><g id="prefix__Server1Drive3"><path id="prefix__Server1Drive1Base" class="prefix__fil6" d="M799.98 363.28h224.22v64.84H799.98z"/><g id="prefix__Server1Drive1Objects"><path id="prefix__Server1Drive1Disk" class="prefix__fil8" d="M930.93 388.2h81.45v15h-81.45z"/><g id="prefix__Server1Drive1Indicators"><rect id="prefix__Server1Drive1Indicator3" class="prefix__fil9" x="863.36" y="388.2" width="15" height="15" rx="5" ry="5"/><rect id="prefix__Server1Drive1Indicator2" class="prefix__fil7" x="837.58" y="388.2" width="15" height="15" rx="5" ry="5"/><rect id="prefix__Server1Drive1Indicator1" class="prefix__fil2" x="811.81" y="388.2" width="15" height="15" rx="5" ry="5"/></g></g></g><g id="prefix__Server1Drive2"><path id="prefix__Server1Drive1Base_0" class="prefix__fil6" d="M799.98 291.6h224.22v64.84H799.98z"/><g id="prefix__Server1Drive1Objects_1"><path id="prefix__Server1Drive1Disk_2" class="prefix__fil8" d="M930.93 316.52h81.45v15h-81.45z"/><g id="prefix__Server1Drive1Indicators_3"><rect id="prefix__Server1Drive1Indicator3_4" class="prefix__fil9" x="863.36" y="316.52" width="15" height="15" rx="5" ry="5"/><rect id="prefix__Server1Drive1Indicator2_5" class="prefix__fil7" x="837.58" y="316.52" width="15" height="15" rx="5" ry="5"/><rect id="prefix__Server1Drive1Indicator1_6" class="prefix__fil2" x="811.81" y="316.52" width="15" height="15" rx="5" ry="5"/></g></g></g><g id="prefix__Server1Drive1"><path id="prefix__Server1Drive1Base_7" class="prefix__fil6" d="M799.98 219.92h224.22v64.84H799.98z"/><g id="prefix__Server1Drive1Objects_8"><path id="prefix__Server1Drive1Disk_9" class="prefix__fil8" d="M930.93 244.84h81.45v15h-81.45z"/><g id="prefix__Server1Drive1Indicators_10"><rect id="prefix__Server1Drive1Indicator3_11" class="prefix__fil9" x="863.36" y="244.84" width="15" height="15" rx="5" ry="5"/><rect id="prefix__Server1Drive1Indicator2_12" class="prefix__fil7" x="837.58" y="244.84" width="15" height="15" rx="5" ry="5"/><rect id="prefix__Server1Drive1Indicator1_13" class="prefix__fil2" x="811.81" y="244.84" width="15" height="15" rx="5" ry="5"/></g></g></g></g><g id="prefix__Cloud4"><path id="prefix__Cloud4Base" class="prefix__fil1" d="M1323.7 892.18c-7.52-31.16 17.77-69.34 66.18-53.38 0 0-11.66-93.53 88.63-100.14 0 0 68.04 11.07 89.27 61.75 0 0 76.5-38.38 90.35 49.78 12.18.39 31.81 12.94 37.89 29.27 37.41-12.93 39.67 13.48 45.77 23.49 34.58 23.22 10.37 62.65-13.98 63.38h-409.78c-36.11-14.33-40.27-57.49 5.67-74.15z"/><g id="prefix__Cloud4Folder1"><path id="prefix__Cloud4Folder1Holder" class="prefix__fil10" d="M1653.2 753.4h60.22a8.3 8.3 0 0 0 7.42-4.58l6-12-6-12a8.3 8.3 0 0 0-7.42-4.58h-60.22a8.3 8.3 0 0 0-7.42 4.58l-6 12 6 12a8.3 8.3 0 0 0 7.42 4.58z"/><path id="prefix__Cloud4Folder1File2" class="prefix__fil11" d="M1511.27 728.53h215.57c2.29 0 4.14 1.85 4.14 4.14v20.73h-223.85v-20.73c0-2.29 1.85-4.14 4.14-4.14z"/><path id="prefix__Cloud4Folder1File1" class="prefix__fil12" d="M1730.98 753.4h-223.85v-8.29h223.85z"/><path id="prefix__Cloud4Folder1Base" class="prefix__fil13" d="M1507.13 736.82h130.09c1.57 0 3.01.89 3.71 2.29l4.85 9.71a8.3 8.3 0 0 0 7.42 4.58h60.22a8.3 8.3 0 0 0 7.42-4.58l4.85-9.71c.7-1.41 2.14-2.29 3.71-2.29h1.58c4.58 0 8.29 3.71 8.29 8.29v157.53c0 4.58-3.71 8.29-8.29 8.29h-125.33c-.9-13.76-8.48-52.71-66.14-35.59 0 0-14.09-36.09-40.67-35.35v-94.88c0-4.58 3.71-8.29 8.29-8.29z"/><path id="prefix__Cloud4Folder1Design" class="prefix__fil10" d="M1604.51 902.64h122.33c2.29 0 4.14-1.86 4.14-4.15s-1.85-4.14-4.14-4.14h-124.82c1.14 2.85 1.93 5.67 2.49 8.29z"/><path id="prefix__Cloud4Folder1NameTag" class="prefix__fil11" d="M1585.89 799h-62.18c-2.29 0-4.15-1.85-4.15-4.15v-33.16c0-2.29 1.86-4.14 4.15-4.14h62.18c2.29 0 4.15 1.85 4.15 4.14v33.16c0 2.3-1.86 4.15-4.15 4.15z"/><path id="prefix__Cloud4Folder1NameLine2" class="prefix__fil14" d="M1532 790.71h45.6a4.144 4.144 0 1 0 0-8.29H1532c-2.29 0-4.15 1.85-4.15 4.14 0 2.29 1.86 4.15 4.15 4.15z"/><path id="prefix__Cloud4Folder1NameLine1" class="prefix__fil15" d="M1532 774.13h45.6a4.144 4.144 0 1 0 0-8.29H1532c-2.29 0-4.15 1.85-4.15 4.14 0 2.29 1.86 4.15 4.15 4.15z"/></g></g><path id="prefix__Cloud3" class="prefix__fil16" d="M129.39 923.91c-2.16-9.31 9.96-44.72 49.78-29.55 0 0 12.99-26.16 35.57-30.29 5.12-28.32 22.31-76.11 89.38-58.52 79.65-86.18 183.96-46.35 175.71 52.54 47.59-20.76 91.68-18.51 94.21 49.64 64.27 20.87 23.18 80.62-1.17 81.35H133.1c-36.12-14.33-31.3-55.14-3.71-65.17z"/><g id="prefix__Character"><path id="prefix__CharacterRightShoeSole" d="M231.58 897.63s-2.83 1.18-1.46 3.42c1.37 2.25 12.89 14.46 12.89 14.46 4.77 6.74 9.51 13.47 14.25 20.25 2.61 3.73 4.16 3.33 8.24 3.74 5.97.64 12.08 1.21 18.01 2.01 1.68.23 2.93-.06 3.1-2.19.15-1.99-1.7-2.09-3.37-2.48-4.34-1.01-8.43-2.9-12.64-4.35l-3.66-1.26-35.36-33.6z" fill="#847c6f"/><path id="prefix__CharacterRightShoeBase" d="M245.35 889.53s-4.1 2.93-6.25 4.69c-2.15 1.75-5.56 1.07-7.52 3.41 8.27 9.48 16.73 19.29 24.52 29.13 1.61 2.04 2.95 3.67 4.32 5.9 2.25 3.62 4.01 3.39 7.95 3.7 5.9.46 11.8.93 17.71 1.41l-16.12-10.55s-1.18-8.83-5.57-12.37l-19.04-25.32z" fill="#5a5245"/><path id="prefix__CharacterRightLeg" class="prefix__fil19" d="M249.16 886.43l-3.81 3.1s.39 20.31 6.45 23.63c2.29 1.69 9.9-2.79 12.69 1.95 0 0-1.85-10.74-4.29-12.59l6.15-8.4-17.19-7.69z"/><path id="prefix__CharacterLeftShoeSole" d="M488.52 933.52l-31.15-.39c-13.09.9-26.27 1.69-39.35 2.75-.22.02-.98.06-1.18.12-.66.36-1.15 4.34 1.21 4.53.92.08 2.08.04 3.08.1 6.18.37 11.63.81 17.82.02 7.19-.82 14.51.72 21.57 1.9 4.47.75 9.15.34 13.63-.14 3.51-.38 17.93-2 14.71-8.26l-.15-.3-.19-.33z" fill="#7f776a"/><path id="prefix__CharacterLeftShoeBase" d="M419.77 921.11s-1.17 3.91-.19 5.08c.97 1.17-3.91 7.52-2.83 9.77 0 0 .39 2.05 8.49 1.07 8.11-.97 23.64-.19 25.49.39 1.86.59 28.71 4.11 37.79-3.9 0 0-23.04-4.98-37.89-10.84l-20.02.68-10.84-2.25z" fill="#5b5346"/><path id="prefix__CharacterLeftLeg" d="M419.57 908.03l.2 13.08 16.6 10.55c5.41 1.62 6.24-3 9.53-6.09.81-.75 1.61-1.38 2.52-2 .7-.48 1.35-.87 2.21-.89l-10.35-4.1.59-9.19-8.4-9.96-12.9 8.6z" fill="#bf6948"/><path id="prefix__CharacterBottom" d="M357.92 614.55s-8.47 7.21-10.62 20.88L309.21 765.7 247.1 885.23l21.49 12.5 76.95-109.37 46.1-106.25 14.06 81.64 11.72 144.14 30.47 1.95.78-154.69-10.72-100.33-26-32.09-54.03-8.18z" fill="#443c2f"/><path id="prefix__CharacterBottomShadow" fill="url(#prefix__id1)" d="M391.64 682.11l5.85-14.46 14.07-2.54-3.22 131.12-2.64-32.48z"/><path id="prefix__CharacterTop" class="prefix__fil25" d="M341.21 554.26l54.89-61.92s24.56-17.41 36.4-15.93l33.52 10.27 28.43 17.55 60.63 7.64 67.58-5.07 4.49 22.85-61.32 12.89s-5.28 1.37-14.46-.2l-55.86-4.88s1.56 22.85-10.15 33.4c-11.72 10.55-18.17 16.8-19.73 20.31-1.56 3.52-24.22 64.65-24.22 64.65s-45.12-11.91-85.74-42.97c0 0 14.26-19.53 18.75-21.68 4.49-2.15 8.79-12.5 8.79-12.5l-.2-10.84-11.33 3.13s-21.97-4.79-30.47-16.7z"/><path id="prefix__CharacterTopShadow" d="M417.98 568.75s-37.62 55.85-42.53 57.65l-19.78-13.55s14.43-20.43 18.75-21.68c4.32-1.24 8.77-13.4 8.77-13.4l11.17-17.73 23.62 8.71z" fill="url(#prefix__id2)"/><path id="prefix__CharacterCollarBack" d="M491.14 490.32s5.03 4.57 5.63 7.33l-3.78 2.97-7.82-10.74 5.97.44z" fill="#00598c"/><path id="prefix__CharacterCollarFront" d="M469.09 482.67s22.58 14.75 27.68 14.98c0 0-.07 4.92-2.32 6.58 0 0-20.03-6.94-27.49-12.7l-5.71-6.83 7.84-2.03z" fill="#0074b1"/><path id="prefix__CharacterHair" d="M472.47 456.38s-2.34 60.15-28.32 66.99l.78-26.37s-8.98 7.43-12.89 6.06c0 0 6.64-13.48 6.44-26.37 0 0-7.81 7.62-7.81 9.96 0 0 0-12.11 9.18-25.58 0 0-5.27 1.95-5.66.78 0 0 2.05-2.35 2.44-4.01 0 0 5.08-48.73 40.24-47.56 0 0 15.23-4.69 22.46 3.71 10.48 11.51 10.55 5.82 16.72 21.08 7.42 18.38 2.06 22.49 8.28 25.6 0 0-4.79.1-6.45-1.66 0 0 10.26 16.8 9.28 26.37 0 0-4.98-9.47-7.32-10.16 0 0-1.18 19.83 6.25 24.03 0 0-5.37 3.61-11.72-3.42.13 3.47-.28 8.51-.55 10.85l-15.49-1.96c-1.13-1.86-.35-2.53-.95-4.3l-3.46-15.87 3.46-27.68-24.91-.49z" fill="#080808"/><path id="prefix__CharacterHairBand" d="M456.19 448.86s-1.95-33.98 38.68-30.27c0 0 13.47 1.56 13.28 16.6 3.6 1.85-43.78 21.85-51.96 13.67z" fill="#024164"/><path id="prefix__CharacterFaceBase" class="prefix__fil19" d="M471.43 468.32s-16.41-5-15.24-19.46c0 0 .59-5.86 7.23-1.95 0 0 3.24-13.52 11.72-16.39 8.49-2.87 27.35-6.07 31.54 2.03 0 0 2.54 3.42 2.05 9.77-.48 6.35.98 9.96 1.86 11.13 1.66 2.22-2.81 32.79-15.53 28.72l-5.47 12.69-20.5-12.19 2.34-14.35z"/><path id="prefix__CharacterFaceShadow" d="M498.06 427.71s3.45 7.78 2.57 15.2c-.88 7.42 4.88 16.7 4.88 16.7s3.02 10.02-1.28 18.72c4.28-5.47 8.54-21.97 6.36-24.88-4.31-5.73 1.4-17.79-6.19-23.48-1.85-1.33-4.05-1.8-6.34-2.26z" fill="url(#prefix__id0)"/><path id="prefix__CharacterNeckShadow" d="M493.92 484.55s-17.74-8.79-19.69-10.84c0 0-3.27-1.71-.59 2.88 2.69 4.59 13.72 13.44 16.87 15.05l3.41-7.09z" fill="#b66645"/><path id="prefix__CharacterWire" class="prefix__fil8" d="M392.28 568.08s38.55 58.58 96.37 18.35c0 0 8.01-4.1 11.52-14.84 0 0 10.74-23.25 43.75-23.83 28.58-.51 56.87-2.37 84.48-22.45 1.18-.86 1.68-2.7 2.79-3.72 10.47-9.6 30.1-29.16 42.42-29.5 0 0 1.12-18.36 34.52-17.39l4.8 43.79s-27.4 11.3-41.08-13.9c0 0-25.97 25.2-32.42 30.67-6.44 5.47-34.38 24.8-68.16 22.85-33.79-1.95-55.47 9.18-64.46 29.49-8.98 20.31-83.64 49.72-128.83-16.94l-.66-5.32 14.96 2.74z"/><path id="prefix__CharacterPlug" d="M707.67 470.57l5.71 52.03 6.61-.94-1.33-12.12 18.21-1.45c1.14-.09 2-1.09 1.91-2.24-.09-1.14-1.09-2-2.24-1.91l-18.33 1.46-2.2-20.04 18.2-1.45a2.09 2.09 0 0 0 1.92-2.24c-.09-1.15-1.1-2-2.24-1.91l-18.33 1.46-1.28-11.6-6.61.95z" fill="#025a8a"/><path id="prefix__CharacterRightHand" d="M365.04 560.02l-.29-1.27 2.63-2.73s.49-6.64-4.2-3.71c-1.71 1.46-7.05 6.68-3.02 9.28l6.93 4.88 17.19 3.9c2.7.01 4.52-2.51 6.23-2.47 3.33.09 6.51 1.94 11.03-1.15 3.7-2.54-10.46-3.38-11.98-2.84-1.95.7-1.89 2.27-1.65-2.93.05-1.16.36-8.79.22-9.32-.55-2.06-3.72-2.96-4.41.66l-1.59 9.85c-.14.19-1.13.6-1.48-.12-1.34-3.13 5.36-18.75.46-18.93-2.42-.08-3.98 10.87-4.89 14.8.28-2.3 1.67-11.3 1.22-12.89-.75-2.66-3.47-3.3-4.78-.05l-4.3 15.48-3.32-.44z" fill="#bf684a"/><path id="prefix__CharacterRightGlove" d="M359.65 561.2s2.52.15 5.39-1.18l3.32.44c3.01 6.61 16.33 9.9 15.92 9.91l-12.6.59s-10.22-5.85-12.03-9.76z" fill="#4a2e20"/><path id="prefix__LaptopKeyboard" fill="#014167" d="M451.73 565.34l-21.27-4.22-7.83.12 5.23 7.89z"/><path id="prefix__LaptopHeight" d="M430.11 565.34h21.62s1.08 4.2-1.95 4.3l-24.53.3 2.66-5.68 2.2 1.08z" fill="#093154"/><path id="prefix__LaptopMonitor" class="prefix__fil6" d="M333.98 554.03l90.29 15.83c1.43.25 2.76-.08 3.92-.97 1.15-.89 1.81-2.1 1.92-3.55l5.22-63.43a4.996 4.996 0 0 0-4.32-5.37l-92.45-12.33c-1.44-.19-2.75.19-3.86 1.12-1.11.92-1.72 2.14-1.8 3.59l-3.05 59.93a4.985 4.985 0 0 0 4.13 5.18z"/><path id="prefix__CharacterLeftHand" d="M649.94 525.59s9.67.59 9.48-7.13c0 0 6.15 2.05 5.47-3.22 0 0 4.1.98 3.8-3.32 14.12-6.69-6.09-11.82-4-4.59 0 0-12.08-.98-7.91 3.13 0 0-11.52 1.56-6.05 5.76 0 0-4.11 2.54.78 4.59 0 0 1.19 2.88-1.57 4.78zm-26.46-14.64l11.91-1.57 9.38-12.11s4.88-1.56 13.18 1.37c0 0 6.06.58 7.42-1.08 0 0 .2 4.99-6.15 6.26-6.35 1.26-7.66.17-7.66.17l-23.16 21.32-2.02.39-2.9-14.75z" fill="#bd6849"/></g><g id="prefix__Cloud2"><path id="prefix__Cloud2Base" class="prefix__fil16" d="M1250.65 302.58c-9.64-39.9 32.14-74.74 94.14-54.3 4.6-54.12 194.02-122.18 238.79-67.14 0 0 92.52-14.01 108.69 100.47 76.7 26.04 67.28 127.85-4.66 130.01h-434.85c-46.25-18.35-60.95-87.69-2.11-109.04z"/><g id="prefix__Cloud2Containers"><g id="prefix__Container3"><path id="prefix__Container1Base" class="prefix__fil4" d="M1497.46 375.87c-4.26 0-8.46-.07-12.59-.19 1.47-13.84-1.7-38-39.57-44.04 0 0 9.6-31.87-16.89-53.51h178.42v70c0 15.32-48.97 27.74-109.37 27.74z"/><path id="prefix__Container1Top" class="prefix__fil5" d="M1497.46 305.86c-19.09 0-37.03-1.24-52.65-3.41-4.14-13.98-15.37-29.44-43.05-37.76 18.66-8.52 54.52-14.29 95.7-14.29 60.4 0 109.37 12.41 109.37 27.73s-48.97 27.73-109.37 27.73z"/><path id="prefix__Container1Hole" class="prefix__fil25" d="M1499.13 356.55h-3.34c-1.84 0-3.34-1.51-3.34-3.34v-26.72c0-1.84 1.5-3.34 3.34-3.34h3.34c1.83 0 3.34 1.5 3.34 3.34v26.72c0 1.83-1.51 3.34-3.34 3.34z"/></g><g id="prefix__Container2"><path id="prefix__Container1Base_14" class="prefix__fil4" d="M1497.46 285.63c-25.29 0-48.58-2.18-67.1-5.83-8.73-7.82-21.82-14.49-41.29-18.17-.65-1.22-.99-2.47-.99-3.73v-70h218.75v70c0 15.32-48.97 27.73-109.37 27.73z"/><path id="prefix__Container1Top_15" class="prefix__fil5" d="M1497.46 215.63c-60.41 0-109.38-12.42-109.38-27.73 0-15.32 48.97-27.74 109.38-27.74 60.4 0 109.37 12.42 109.37 27.74 0 15.31-48.97 27.73-109.37 27.73z"/><path id="prefix__Container1Hole_16" class="prefix__fil25" d="M1499.13 266.31h-3.34c-1.84 0-3.34-1.5-3.34-3.34v-26.72c0-1.83 1.5-3.34 3.34-3.34h3.34c1.83 0 3.34 1.51 3.34 3.34v26.72c0 1.84-1.51 3.34-3.34 3.34z"/></g><g id="prefix__Container1"><path id="prefix__Container1Base_17" class="prefix__fil4" d="M1497.46 195.4c-60.41 0-109.38-12.42-109.38-27.74v-70h218.75v70c0 15.32-48.97 27.74-109.37 27.74z"/><path id="prefix__Container1Top_18" class="prefix__fil5" d="M1497.46 125.4c-60.41 0-109.38-12.42-109.38-27.74 0-15.32 48.97-27.73 109.38-27.73 60.4 0 109.37 12.41 109.37 27.73s-48.97 27.74-109.37 27.74z"/><path id="prefix__Container1Hole_19" class="prefix__fil25" d="M1499.13 176.08h-3.34c-1.84 0-3.34-1.51-3.34-3.34v-26.72c0-1.84 1.5-3.34 3.34-3.34h3.34c1.83 0 3.34 1.5 3.34 3.34v26.72c0 1.83-1.51 3.34-3.34 3.34z"/></g></g></g><g id="prefix__Cloud1"><path id="prefix__Cloud1Base" class="prefix__fil1" d="M547.24 237.81c6.58-27.25-15.55-60.65-57.9-46.69 0 0 10.2-81.82-77.53-87.6 0 0-59.53 9.68-78.1 54.01 0 0-66.92-33.57-79.03 43.55-10.66.35-27.83 11.32-33.15 25.61-32.73-11.31-34.7 11.79-40.04 20.55-30.25 20.31-9.07 54.8 12.23 55.44h358.47c31.6-12.53 35.24-50.29-4.95-64.87z"/><g id="prefix__Cloud1Folder1"><path id="prefix__Cloud1Folder1Holder" class="prefix__fil10" d="M258.99 116.41h-52.68c-2.75 0-5.26-1.55-6.49-4.01l-5.25-10.49 5.25-10.5a7.251 7.251 0 0 1 6.49-4.01h52.68c2.75 0 5.26 1.55 6.49 4.01l5.25 10.5-5.25 10.49a7.251 7.251 0 0 1-6.49 4.01z"/><path id="prefix__Cloud1Folder1File2" class="prefix__fil11" d="M383.15 94.65H194.57c-2 0-3.63 1.63-3.63 3.63v18.13h195.83V98.28c0-2-1.62-3.63-3.62-3.63z"/><path id="prefix__Cloud1Folder1File1" class="prefix__fil12" d="M190.94 116.41h195.83v-7.25H190.94z"/><path id="prefix__Cloud1Folder1Base" class="prefix__fil13" d="M386.77 101.91h-113.8c-1.38 0-2.63.77-3.25 2l-4.24 8.49a7.251 7.251 0 0 1-6.49 4.01h-52.68c-2.75 0-5.26-1.55-6.49-4.01l-4.25-8.49c-.61-1.23-1.87-2-3.24-2h-1.39c-4 0-7.25 3.24-7.25 7.25v137.8c0 4.01 3.25 7.26 7.25 7.26h109.64c.8-12.04 7.42-46.12 57.87-31.14 0 0 12.32-31.56 35.58-30.92v-83a7.25 7.25 0 0 0-7.26-7.25z"/><path id="prefix__Cloud1Folder1Design" class="prefix__fil10" d="M301.59 246.96H194.57c-2 0-3.63-1.62-3.63-3.62s1.63-3.63 3.63-3.63h109.19c-.99 2.49-1.69 4.97-2.17 7.25z"/><path id="prefix__Cloud1Folder1NameTag" class="prefix__fil11" d="M317.87 156.3h54.4c2 0 3.62-1.62 3.62-3.62v-29.02c0-2-1.62-3.62-3.62-3.62h-54.4c-2 0-3.63 1.62-3.63 3.62v29.02c0 2 1.63 3.62 3.63 3.62z"/><path id="prefix__Cloud1Folder1NameLine2" class="prefix__fil14" d="M365.01 149.05h-39.89c-2 0-3.62-1.62-3.62-3.63 0-2 1.62-3.62 3.62-3.62h39.89c2.01 0 3.63 1.62 3.63 3.62 0 2.01-1.62 3.63-3.63 3.63z"/><path id="prefix__Cloud1Folder1NameLine1" class="prefix__fil15" d="M365.01 134.54h-39.89c-2 0-3.62-1.62-3.62-3.62 0-2.01 1.62-3.63 3.62-3.63h39.89c2.01 0 3.63 1.62 3.63 3.63 0 2-1.62 3.62-3.63 3.62z"/></g></g></g></g></svg>