<svg xmlns="http://www.w3.org/2000/svg" width="4391" height="1014" viewBox="0 0 7663.58 1770.49" shape-rendering="geometricPrecision" text-rendering="geometricPrecision" image-rendering="optimizeQuality" fill-rule="evenodd" clip-rule="evenodd"><path d="M6952.11 861.46l-369.47-508.47h316.42l214.02 316.43 215.79-316.43h314.58l-374.92 506.65 395.05 548.7h-310.92L7109.42 1059l-235.99 349.34h-321.88l400.56-546.88zm-636.51 38.42c0-205.82-77.97-338.36-254.24-338.36-175.68 0-256.04 125.93-256.04 338.36 0 190.22 96.93 296.29 254.24 296.29 159.11 0 256.04-104.24 256.04-296.29zm-788.31 3.65v-29.26c0-354.82 224.98-545.03 532.27-545.03 314.59 0 534.04 193.85 534.04 545.03v29.26c0 347.52-215.78 532.24-534.04 532.24-340.21 0-532.27-184.72-532.27-532.24zm-398.73-16.46v-25.61c0-411.51-508.47-393.8-508.47 3.67 0 205.95 83.42 332.88 252.4 332.88 159.14 0 256.07-102.44 256.07-310.94zm-512.11 329.23l-21.96 192.04h-237.78V0h268.87v541.38c58.54-137.16 175.6-212.14 342.01-212.14 250.57 1.82 437.18 175.57 437.18 526.75v31.08c0 351.19-175.6 548.7-444.48 548.7-173.77 0-287.16-84.13-343.84-219.47zM3934.2 901.71c0-218.36-87.86-338.36-252.37-338.36-168.56 0-256.08 128.08-256.08 332.87 0 186.56 98.77 303.62 250.58 303.62 157.28 0 257.87-104.27 257.87-298.13zm-771.82-548.72h230.45l27.42 201.2c56.72-135.33 173.78-224.95 347.54-224.95 268.84 0 444.44 193.85 444.44 548.69v29.25c0 347.52-195.69 528.59-444.44 528.59-168.27 0-279.86-74.99-336.54-197.51v532.23h-268.87V352.99zm-422.51 546.89c0-205.82-77.97-338.36-254.24-338.36-175.64 0-256.04 125.93-256.04 338.36 0 190.22 96.93 296.29 254.2 296.29 157.31 0 256.08-104.24 256.08-296.29zm-788.31 3.65v-29.26c0-354.82 226.82-545.03 534.07-545.03 314.62 0 532.24 193.85 532.24 545.03v29.26c0 347.52-214 532.24-532.24 532.24-340.18 0-534.07-184.72-534.07-532.24zm-727.94-550.54h221.32l34.75 245.1c42.06-168.27 149.98-254.23 345.67-254.23h67.68v279.85c-263.3 0-395.05-14.06-395.05 301.77v482.86h-274.37V352.99zM278.01 340.2v828.54h214.01c179.23 0 301.79-118.89 301.79-380.43v-67.68c0-261.55-126.22-380.43-310.96-380.43H278.01zM0 104.25h497.48c318.25 0 577.99 184.73 577.99 603.58v89.62c0 420.68-245.07 610.89-570.66 610.89H0V104.25z" fill="#1d1d1e" fill-rule="nonzero"/></svg>