<svg xmlns="http://www.w3.org/2000/svg" width="671" height="973" viewBox="0 0 511.16 740.9" shape-rendering="geometricPrecision" text-rendering="geometricPrecision" image-rendering="optimizeQuality" fill-rule="evenodd" clip-rule="evenodd"><path d="M511.16 0L15.38 626.25c-24.3 30.52-19.26 74.97 11.27 99.27 30.52 24.31 74.97 19.26 99.27-11.27 3.39-4.25 8.83-13.24 8.83-13.24l9.5-17.69L511.16 0zM64.11 708.07c-13.37 0-25.53-8.64-30.05-21.18-4.43-12.26-.67-26.41 9.19-34.92 10.54-9.11 26.15-10.19 37.91-2.79 11.03 6.93 16.77 20.43 14.23 33.18-2.93 14.72-16.24 25.71-31.28 25.71z" fill="#0061fe"/></svg>