<svg xmlns="http://www.w3.org/2000/svg" width="197" height="201" viewBox="0 0 16.75 17.09" shape-rendering="geometricPrecision" text-rendering="geometricPrecision" image-rendering="optimizeQuality" fill-rule="evenodd" clip-rule="evenodd"><path d="M15.07.25s-.94.92-1.59 1.56c-3.32-2.43-8-2.15-11 .85A8.44 8.44 0 0 0 .01 9.02h2.83c-.1-1.56.44-3.16 1.64-4.36a5.643 5.643 0 0 1 6.95-.82c-.74.73-1.59 1.58-1.59 1.58-.6.72.07 1.13.41 1.12H15.78c.21 0 .38-.17.38-.38V.68c.03-.5-.52-.99-1.09-.43zM1.68 16.85s.94-.92 1.59-1.56c3.32 2.42 8 2.15 11.01-.85 1.75-1.75 2.56-4.08 2.46-6.37h-2.83c.1 1.57-.44 3.17-1.64 4.37-1.88 1.88-4.77 2.15-6.95.82.74-.73 1.59-1.59 1.59-1.59.6-.71-.07-1.13-.41-1.11H2.13.97a.38.38 0 0 0-.38.38v5.48c-.03.5.52.98 1.09.43z" fill="#0061fe"/></svg>