<svg width = "0" height = "0">
  <symbol xmlns = "http://www.w3.org/2000/svg" viewBox = "0 0 24 24" id = "mi-backspace">
    <path d = "M22 3H7c-.7 0-1.2.3-1.6.9L0 12l5.4 8.1c.4.5.9.9 1.6.9h15c1.1 0 2-.9 2-2V5c0-1.1-.9-2-2-2zm-3 12.6L17.6 17 14 13.4 10.4 17 9 15.6l3.6-3.6L9 8.4 10.4 7l3.6 3.6L17.6 7 19 8.4 15.4 12l3.6 3.6z"></path>
  </symbol>
  <symbol xmlns = "http://www.w3.org/2000/svg" viewBox = "0 0 24 24" id = "mi-brightnessMedium">
    <path d = "M20.5 15.5L24 12l-3.5-3.5v-5h-5L12 0 8.5 3.5h-5v5L0 12l3.5 3.5v5h5L12 24l3.5-3.5h5v-5zM12 18.4V5.6c3.5 0 6.4 2.9 6.4 6.4s-2.9 6.4-6.4 6.4z"></path>
  </symbol>
  <symbol xmlns = "http://www.w3.org/2000/svg" viewBox = "0 0 24 24" id = "mi-chevronLeft">
    <path d = "M19.4 2.8L16.6 0l-12 12 12 12 2.8-2.8-9.2-9.2 9.2-9.2z"></path>
  </symbol>
  <symbol xmlns = "http://www.w3.org/2000/svg" viewBox = "0 0 24 24" id = "mi-chevronRight">
    <path d = "M7.4 0L4.6 2.8l9.2 9.2-9.2 9.2L7.4 24l12-12-12-12z"></path>
  </symbol>
  <symbol xmlns = "http://www.w3.org/2000/svg" viewBox = "0 0 24 24" id = "mi-close">
    <path d = "M24 2.4L21.6 0 12 9.6 2.4 0 0 2.4 9.6 12 0 21.6 2.4 24l9.6-9.6 9.6 9.6 2.4-2.4-9.6-9.6L24 2.4z"></path>
  </symbol>
  <symbol xmlns = "http://www.w3.org/2000/svg" viewBox = "0 0 24 24" id = "mi-done">
    <path d = "M7.6 17.3l-5.7-5.7L0 13.5l7.6 7.6L24 4.8l-1.9-1.9L7.6 17.3z"></path>
  </symbol>
  <symbol xmlns = "http://www.w3.org/2000/svg" viewBox = "0 0 24 24" id = "mi-east">
    <path d = "M15.6 3.6l-1.7 1.7 5.5 5.5H0v2.4h19.4l-5.5 5.5 1.7 1.7L24 12l-8.4-8.4z"></path>
  </symbol>
  <symbol xmlns = "http://www.w3.org/2000/svg" viewBox = "0 0 24 24" id = "mi-edit">
    <path d = "M14.7 8L16 9.3l-12.1 12H2.7v-1.2L14.7 8m4.8-8c-.3 0-.7.1-.9.4l-2.4 2.4 5 5 2.4-2.4c.5-.5.5-1.4 0-1.9L20.5.4c-.3-.3-.6-.4-1-.4zm-4.8 4.3L0 19v5h5L19.7 9.3l-5-5z"></path>
  </symbol>
  <symbol xmlns = "http://www.w3.org/2000/svg" viewBox = "0 0 24 24" id = "mi-email">
    <path d = "M24 4.8c0-1.3-1.1-2.4-2.4-2.4H2.4C1.1 2.4 0 3.5 0 4.8v14.4c0 1.3 1.1 2.4 2.4 2.4h19.2c1.3 0 2.4-1.1 2.4-2.4V4.8zm-2.4 0l-9.6 6-9.6-6h19.2zm0 14.4H2.4v-12l9.6 6 9.6-6v12z"></path>
  </symbol>
  <symbol xmlns = "http://www.w3.org/2000/svg" viewBox = "0 0 24 24" id = "mi-event">
    <path d = "M20.4 2.4h-1.2V0h-2.4v2.4H7.2V0H4.8v2.4H3.6c-1.3 0-2.4 1.1-2.4 2.4v16.8c0 1.3 1.1 2.4 2.4 2.4h16.8c1.3 0 2.4-1.1 2.4-2.4V4.8c0-1.3-1.1-2.4-2.4-2.4zm0 19.2H3.6v-12h16.8v12zm0-14.4H3.6V4.8h16.8v2.4zm-8.4 6h6v6h-6v-6z"></path>
  </symbol>
  <symbol xmlns = "http://www.w3.org/2000/svg" viewBox = "0 0 24 24" id = "mi-expandLess">
    <path d = "M12 4.6l-12 12 2.8 2.8 9.2-9.2 9.2 9.2 2.8-2.8-12-12z"></path>
  </symbol>
  <symbol xmlns = "http://www.w3.org/2000/svg" viewBox = "0 0 24 24" id = "mi-firstPage">
    <path d = "M24 20.9L15.1 12 24 3.1 21.3.4 9.7 12l11.6 11.6 2.7-2.7zM0 .4h3.9v23.2H0V.4z"></path>
  </symbol>
  <symbol xmlns = "http://www.w3.org/2000/svg" viewBox = "0 0 24 24" id = "mi-fullscreen">
    <path d = "M3.4 15.4H0V24h8.6v-3.4H3.4v-5.2zM0 8.6h3.4V3.4h5.1V0H0v8.6zm20.6 12h-5.1V24H24v-8.6h-3.4v5.2zM15.4 0v3.4h5.1v5.1H24V0h-8.6z"></path>
  </symbol>
  <symbol xmlns = "http://www.w3.org/2000/svg" viewBox = "0 0 24 24" id = "mi-history">
    <path d = "M13.7 1.7C8 1.7 3.4 6.3 3.4 12H0l4.4 4.4.1.2L9.1 12H5.7c0-4.4 3.6-8 8-8s8 3.6 8 8-3.6 8-8 8c-2.2 0-4.2-.9-5.6-2.4l-1.6 1.6c1.9 1.9 4.4 3 7.3 3C19.4 22.3 24 17.7 24 12S19.4 1.7 13.7 1.7zm-1.1 5.7v5.7l4.9 2.9.9-1.5-4-2.4V7.4h-1.8z"></path>
  </symbol>
  <symbol xmlns = "http://www.w3.org/2000/svg" viewBox = "0 0 24 24" id = "mi-house">
    <path d = "M20.4 9.4V3h-3.6v3.1L12 1.8 0 12.6h3.6v9.6h7.2V15h2.4v7.2h7.2v-9.6H24l-3.6-3.2zM18 19.8h-2.4v-7.2H8.4v7.2H6v-9.4L12 5l6 5.4v9.4zm-8.4-9.6h4.8c0-1.3-1.1-2.4-2.4-2.4s-2.4 1.1-2.4 2.4z"></path>
  </symbol>
  <symbol xmlns = "http://www.w3.org/2000/svg" viewBox = "0 0 24 24" id = "mi-info">
    <path d = "M10.8 6h2.4v2.4h-2.4V6zm0 4.8h2.4V18h-2.4v-7.2zM12 0C5.4 0 0 5.4 0 12s5.4 12 12 12 12-5.4 12-12S18.6 0 12 0zm0 21.6c-5.3 0-9.6-4.3-9.6-9.6S6.7 2.4 12 2.4s9.6 4.3 9.6 9.6-4.3 9.6-9.6 9.6z"></path>
  </symbol>
  <symbol xmlns = "http://www.w3.org/2000/svg" viewBox = "0 0 24 24" id = "mi-lastPage">
    <path d = "M0 3.1L8.9 12 0 20.9l2.7 2.7L14.3 12 2.7.4 0 3.1zM20.1.4H24v23.2h-3.9V.4z"></path>
  </symbol>
  <symbol xmlns = "http://www.w3.org/2000/svg" viewBox = "0 0 24 24" id = "mi-launch">
    <path d = "M21.3 21.3H2.7V2.7H12V0H2.7C1.2 0 0 1.2 0 2.7v18.7C0 22.8 1.2 24 2.7 24h18.7c1.5 0 2.7-1.2 2.7-2.7V12h-2.7v9.3zM14.7 0v2.7h4.8L6.3 15.8l1.9 1.9L21.3 4.5v4.8H24V0h-9.3z"></path>
  </symbol>
  <symbol xmlns = "http://www.w3.org/2000/svg" viewBox = "0 0 24 24" id = "mi-link">
    <path d = "M18 6h-4.8v2.4H18c2 0 3.6 1.6 3.6 3.6S20 15.6 18 15.6h-4.8V18H18c3.3 0 6-2.7 6-6s-2.7-6-6-6zm-7.2 9.6H6c-2 0-3.6-1.6-3.6-3.6S4 8.4 6 8.4h4.8V6H6c-3.3 0-6 2.7-6 6s2.7 6 6 6h4.8v-2.4zm-3.6-4.8h9.6v2.4H7.2v-2.4z"></path>
  </symbol>
  <symbol xmlns = "http://www.w3.org/2000/svg" viewBox = "0 0 24 24" id = "mi-localOffer">
    <path d = "M23.3 11.5L12.5.7c-.4-.4-1-.7-1.7-.7H2.4C1.1 0 0 1.1 0 2.4v8.4c0 .7.3 1.3.7 1.7l10.8 10.8a2.413 2.413 0 003.4 0l8.4-8.4a2.413 2.413 0 000-3.4zM13.2 21.6L2.4 10.8V2.4h8.4l10.8 10.8-8.4 8.4zm-7.8-18c1 0 1.8.8 1.8 1.8s-.8 1.8-1.8 1.8-1.8-.8-1.8-1.8.8-1.8 1.8-1.8z"></path>
  </symbol>
  <symbol xmlns = "http://www.w3.org/2000/svg" viewBox = "0 0 24 24" id = "mi-menu">
    <path d = "M0 20h24v-2.7H0V20zm0-6.7h24v-2.7H0v2.7zM0 4v2.7h24V4H0z"></path>
  </symbol>
  <symbol xmlns = "http://www.w3.org/2000/svg" viewBox = "0 0 24 24" id = "mi-moreVert">
    <path d = "M12 6c1.7 0 3-1.4 3-3s-1.3-3-3-3-3 1.4-3 3 1.3 3 3 3zm0 3c-1.7 0-3 1.3-3 3s1.3 3 3 3 3-1.3 3-3-1.3-3-3-3zm0 9c-1.7 0-3 1.3-3 3s1.3 3 3 3 3-1.3 3-3-1.3-3-3-3z"></path>
  </symbol>
  <symbol xmlns = "http://www.w3.org/2000/svg" viewBox = "0 0 24 24" id = "mi-offlineBolt">
    <path d = "M12 0C5.4 0 0 5.4 0 12s5.4 12 12 12 12-5.4 12-12S18.6 0 12 0zm0 21.6c-5.3 0-9.6-4.3-9.6-9.6S6.7 2.4 12 2.4s9.6 4.3 9.6 9.6-4.3 9.6-9.6 9.6zm.9-18L7.5 13.8h3.8v6.6l5.2-10.2h-3.6V3.6z"></path>
  </symbol>
  <symbol xmlns = "http://www.w3.org/2000/svg" viewBox = "0 0 24 24" id = "mi-pause">
    <path d = "M1.7 24h6.9V0H1.7v24zM15.4 0v24h6.9V0h-6.9z"></path>
  </symbol>
  <symbol xmlns = "http://www.w3.org/2000/svg" viewBox = "0 0 24 24" id = "mi-playArrow">
    <path d = "M6 6.2l9 5.8-9 5.8V6.2M2.6 0v24l18.9-12L2.6 0z"></path>
  </symbol>
  <symbol xmlns = "http://www.w3.org/2000/svg" viewBox = "0 0 24 24" id = "mi-publishedWithChanges">
    <path d = "M18.8 9l-8.5 8.5-5.1-5.1 1.7-1.7 3.4 3.4 6.8-6.8L18.8 9zM2.4 12c0-2.8 1.2-5.3 3.1-7.1l2.9 2.9V.5H1.2l2.6 2.7C1.5 5.4 0 8.5 0 12c0 6.3 4.7 11.4 10.8 12v-2.4C6.1 21 2.4 16.9 2.4 12zM24 12C24 5.7 19.3.6 13.2 0v2.4c4.7.6 8.4 4.7 8.4 9.6 0 2.8-1.2 5.3-3.1 7.1l-2.9-2.9v7.2h7.2l-2.6-2.7c2.3-2.1 3.8-5.2 3.8-8.7z"></path>
  </symbol>
  <symbol xmlns = "http://www.w3.org/2000/svg" viewBox = "0 0 24 24" id = "mi-schedule">
    <path d = "M12 0C5.4 0 0 5.4 0 12s5.4 12 12 12 12-5.4 12-12S18.6 0 12 0zm0 21.6c-5.3 0-9.6-4.3-9.6-9.6S6.7 2.4 12 2.4s9.6 4.3 9.6 9.6-4.3 9.6-9.6 9.6zM12.6 6h-1.8v7.2l6.3 3.8.9-1.5-5.4-3.2V6z"></path>
  </symbol>
  <symbol xmlns = "http://www.w3.org/2000/svg" viewBox = "0 0 24 24" id = "mi-search">
    <path d = "M17.2 15.1h-1.1l-.4-.4c1.3-1.6 2.2-3.6 2.2-5.8C17.9 4 13.9 0 9 0S0 4 0 8.9s4 8.9 8.9 8.9c2.2 0 4.2-.8 5.8-2.2l.4.4v1.1L22 24l2-2-6.8-6.9zm-8.3 0c-3.4 0-6.2-2.8-6.2-6.2s2.8-6.2 6.2-6.2 6.2 2.8 6.2 6.2-2.8 6.2-6.2 6.2z"></path>
  </symbol>
  <symbol xmlns = "http://www.w3.org/2000/svg" viewBox = "0 0 24 24" id = "mi-settings">
    <path d = "M21.2 13.2c0-.4.1-.8.1-1.2 0-.4 0-.8-.1-1.2l2.6-2c.2-.2.3-.5.1-.8l-2.5-4.2c-.1-.2-.3-.3-.5-.3h-.2l-3.1 1.2c-.6-.3-1.3-.7-2.1-1L15 .5c0-.3-.2-.5-.5-.5h-5c-.3 0-.5.2-.6.5l-.4 3.2c-.8.3-1.5.7-2.1 1.2L3.3 3.7h-.2c-.2 0-.4.1-.5.3L.1 8.1c-.2.2-.1.6.1.7l2.6 2c0 .4-.1.8-.1 1.2 0 .4 0 .8.1 1.2l-2.6 2c-.2.2-.3.5-.1.8l2.5 4.2c.1.2.3.3.5.3h.2l3.1-1.2c.6.3 1.3.7 2.1 1l.5 3.2c0 .3.2.5.5.5h4.9c.3 0 .6-.2.6-.5l.5-3.2c.8-.3 1.4-.7 2.1-1.2l3.1 1.2h.2c.2 0 .4-.1.5-.3l2.5-4.2c.1-.3.1-.6-.1-.8l-2.6-1.8zm-2.5-2.1c0 .4.1.6.1.9 0 .3 0 .5-.1.9l-.2 1.4 1.1.8 1.3 1-.9 1.5-1.6-.6-1.3-.5-1.1.8c-.5.4-1 .7-1.5.9l-1.3.5-.1 1.3-.2 1.6h-1.7l-.3-1.6-.2-1.4-1.3-.5c-.5-.2-1-.5-1.5-.9l-1.1-.8-1.3.5-1.6.6-.9-1.4 1.3-1 1.1-.8-.2-1.4c0-.4-.1-.6-.1-.9s0-.5.1-.9l.2-1.4-1-.8-1.4-1 .9-1.5 1.6.6 1.3.5 1.1-.8c.5-.4 1-.7 1.5-.9l1.3-.5.2-1.3.2-1.6h1.7l.3 1.6.2 1.4 1.3.5c.5.2 1 .5 1.5.9l1.1.8 1.3-.5 1.6-.6.9 1.4-1.3 1-1.1.8c0 .1.1 1.4.1 1.4zM12 7.2c-2.7 0-4.9 2.1-4.9 4.8s2.2 4.8 4.9 4.8 4.9-2.1 4.9-4.8-2.2-4.8-4.9-4.8zm0 7.2c-1.4 0-2.5-1.1-2.5-2.4s1.1-2.4 2.5-2.4 2.5 1.1 2.5 2.4-1.1 2.4-2.5 2.4z"></path>
  </symbol>
  <symbol xmlns = "http://www.w3.org/2000/svg" viewBox = "0 0 24 24" id = "mi-subtitles">
    <path d = "M21.6 2.4H2.4C1.1 2.4 0 3.5 0 4.8v14.4c0 1.3 1.1 2.4 2.4 2.4h19.2c1.3 0 2.4-1.1 2.4-2.4V4.8c0-1.3-1.1-2.4-2.4-2.4zm0 16.8H2.4V4.8h19.2v14.4zM4.8 9.6h2.4V12H4.8V9.6zm0 4.8h9.6v2.4H4.8v-2.4zm12 0h2.4v2.4h-2.4v-2.4zM9.6 9.6h9.6V12H9.6V9.6z"></path>
  </symbol>
  <symbol xmlns = "http://www.w3.org/2000/svg" viewBox = "0 0 24 24" id = "mi-tripOrigin">
    <path d = "M0 12C0 5.4 5.4 0 12 0s12 5.4 12 12-5.4 12-12 12S0 18.6 0 12zm12 7.2c4 0 7.2-3.2 7.2-7.2S16 4.8 12 4.8 4.8 8 4.8 12 8 19.2 12 19.2z"></path>
  </symbol>
  <symbol xmlns = "http://www.w3.org/2000/svg" viewBox = "0 0 24 24" id = "mi-volumeDown">
    <path d = "M18.1 6v12c2.2-1.1 3.8-3.4 3.8-6s-1.6-4.9-3.8-6zM1.6 7.5v9h6l7.5 7.5V0L7.6 7.5h-6zm10.5-.3v9.5l-3.3-3.3H4.6v-3h4.2l3.3-3.2z"></path>
  </symbol>
  <symbol xmlns = "http://www.w3.org/2000/svg" viewBox = "0 0 24 24" id = "mi-volumeOff">
    <path d = "M1.9 0L0 1.9l5.8 5.8-.4.3H.1v8h5.3l6.6 6.6v-8.7l5.5 5.5c-.9.6-1.8 1.2-2.9 1.5v2.7c1.8-.4 3.4-1.2 4.8-2.3l2.7 2.7 1.9-1.9L1.9 0zm7.5 16.2l-2.9-2.9H2.7v-2.6h3.7l1.2-1.2 1.7 1.7v5zM21.3 12c0 1.1-.2 2.1-.5 3.1l2 2c.7-1.5 1.2-3.3 1.2-5.1C24 6.3 20 1.6 14.7.4v2.7c3.8 1.2 6.6 4.7 6.6 8.9zM12 1.4L9.5 3.9 12 6.4v-5zM18 12c0-2.3-1.3-4.4-3.3-5.3V9l3.3 3.3c-.1-.1 0-.2 0-.3z"></path>
  </symbol>
  <symbol xmlns = "http://www.w3.org/2000/svg" viewBox = "0 0 24 24" id = "mi-volumeUp">
    <path d = "M0 8v8h5.3l6.7 6.7V1.3L5.3 8H0zm9.3-.2v8.5l-2.9-2.9H2.7v-2.7h3.8l2.8-2.9zM18 12c0-2.4-1.4-4.4-3.3-5.4v10.7c1.9-.9 3.3-2.9 3.3-5.3zM14.7.3V3c3.9 1.1 6.7 4.7 6.7 8.9s-2.8 7.8-6.7 8.9v2.7C20 22.5 24 17.7 24 12S20 1.5 14.7.3z"></path>
  </symbol>
  <symbol xmlns = "http://www.w3.org/2000/svg" viewBox = "0 0 24 24" id = "mi-widget">
    <path d = "M17 3.5L20.5 7 17 10.6 13.5 7 17 3.5m-9.5.6v5h-5v-5h5m12.4 12.4v5h-5v-5h5m-12.4 0v5h-5v-5h5M17 0l-7 7 7 7 7-7-7-7zM9.9 1.6H0v9.9h9.9V1.6zm12.5 12.5h-9.9V24h9.9v-9.9zm-12.5 0H0V24h9.9v-9.9z"></path>
  </symbol>
</svg>